<svg version="1.1" viewBox="0.0 0.0 966.0 218.0" fill="none" stroke="none" stroke-linecap="square" stroke-miterlimit="10" width="966" height="218" xmlns:xlink="http://www.w3.org/1999/xlink" xmlns="http://www.w3.org/2000/svg"><path fill="#ffffff" d="M0 0L966.0 0L966.0 218.0L0 218.0L0 0Z" fill-rule="nonzero"/><clipPath id="id_0"><path d="M69.9 42.166668L955.1 42.166668L955.1 207.1L69.9 207.1L69.9 42.166668Z" clip-rule="nonzero"/></clipPath><path stroke="#000000" stroke-width="2.0" stroke-linecap="butt" stroke-opacity="0.0" clip-path="url(#id_0)" d="M70.0 69.0L70.0 52.0L541.0 52.0C542.10455 52.0 543.0 52.89543 543.0 54.0L543.0 67.0C543.0 68.10457 542.10455 69.0 541.0 69.0Z" fill-rule="nonzero"/><path fill="#9277e4" clip-path="url(#id_0)" d="M70.0 69.0L70.0 52.0L541.0 52.0C542.10455 52.0 543.0 52.89543 543.0 54.0L543.0 67.0C543.0 68.10457 542.10455 69.0 541.0 69.0Z" fill-rule="nonzero"/><path stroke="#000000" stroke-width="2.0" stroke-linecap="butt" stroke-opacity="0.0" clip-path="url(#id_0)" d="M70.0 95.0L70.0 78.0L687.0 78.0C688.10455 78.0 689.0 78.89543 689.0 80.0L689.0 93.0C689.0 94.10457 688.10455 95.0 687.0 95.0Z" fill-rule="nonzero"/><path fill="#9277e4" clip-path="url(#id_0)" d="M70.0 95.0L70.0 78.0L687.0 78.0C688.10455 78.0 689.0 78.89543 689.0 80.0L689.0 93.0C689.0 94.10457 688.10455 95.0 687.0 95.0Z" fill-rule="nonzero"/><path stroke="#000000" stroke-width="2.0" stroke-linecap="butt" stroke-opacity="0.0" clip-path="url(#id_0)" d="M70.0 121.0L70.0 104.0L773.0 104.0C774.10455 104.0 775.0 104.89543 775.0 106.0L775.0 119.0C775.0 120.10457 774.10455 121.0 773.0 121.0Z" fill-rule="nonzero"/><path fill="#9277e4" clip-path="url(#id_0)" d="M70.0 121.0L70.0 104.0L773.0 104.0C774.10455 104.0 775.0 104.89543 775.0 106.0L775.0 119.0C775.0 120.10457 774.10455 121.0 773.0 121.0Z" fill-rule="nonzero"/><path stroke="#000000" stroke-width="2.0" stroke-linecap="butt" stroke-opacity="0.0" clip-path="url(#id_0)" d="M70.0 147.0L70.0 130.0L826.0 130.0C827.10455 130.0 828.0 130.89543 828.0 132.0L828.0 145.0C828.0 146.10457 827.10455 147.0 826.0 147.0Z" fill-rule="nonzero"/><path fill="#9277e4" clip-path="url(#id_0)" d="M70.0 147.0L70.0 130.0L826.0 130.0C827.10455 130.0 828.0 130.89543 828.0 132.0L828.0 145.0C828.0 146.10457 827.10455 147.0 826.0 147.0Z" fill-rule="nonzero"/><path stroke="#000000" stroke-width="2.0" stroke-linecap="butt" stroke-opacity="0.0" clip-path="url(#id_0)" d="M70.0 173.0L70.0 156.0L840.0 156.0C841.10455 156.0 842.0 156.89543 842.0 158.0L842.0 171.0C842.0 172.10457 841.10455 173.0 840.0 173.0Z" fill-rule="nonzero"/><path fill="#9277e4" clip-path="url(#id_0)" d="M70.0 173.0L70.0 156.0L840.0 156.0C841.10455 156.0 842.0 156.89543 842.0 158.0L842.0 171.0C842.0 172.10457 841.10455 173.0 840.0 173.0Z" fill-rule="nonzero"/><path stroke="#000000" stroke-width="2.0" stroke-linecap="butt" stroke-opacity="0.0" clip-path="url(#id_0)" d="M70.0 199.0L70.0 182.0L844.0 182.0C845.10455 182.0 846.0 182.89543 846.0 184.0L846.0 197.0C846.0 198.10457 845.10455 199.0 844.0 199.0Z" fill-rule="nonzero"/><path fill="#9277e4" clip-path="url(#id_0)" d="M70.0 199.0L70.0 182.0L844.0 182.0C845.10455 182.0 846.0 182.89543 846.0 184.0L846.0 197.0C846.0 198.10457 845.10455 199.0 844.0 199.0Z" fill-rule="nonzero"/><path stroke="#ffffff" stroke-width="3.0" stroke-linejoin="round" stroke-linecap="round" d="M559.5346 64.5L558.4565 64.5L558.4565 57.28125L556.269 58.078125L556.269 57.09375L559.37836 55.921875L559.5346 55.921875L559.5346 64.5ZM567.23773 55.96875L567.23773 56.875L567.0346 56.875Q565.769 56.90625 565.019 57.640625Q564.269 58.359375 564.144 59.671875Q564.8315 58.90625 565.98773 58.90625Q567.0971 58.90625 567.769 59.6875Q568.44086 60.46875 568.44086 61.71875Q568.44086 63.03125 567.7221 63.828125Q567.00336 64.625 565.7846 64.625Q564.56586 64.625 563.80023 63.6875Q563.05023 62.734375 563.05023 61.25L563.05023 60.84375Q563.05023 58.484375 564.05023 57.234375Q565.05023 55.984375 567.0346 55.96875L567.23773 55.96875ZM565.81586 59.8125Q565.25336 59.8125 564.7846 60.140625Q564.31586 60.46875 564.12836 60.984375L564.12836 61.375Q564.12836 62.4375 564.5971 63.078125Q565.0815 63.71875 565.7846 63.71875Q566.519 63.71875 566.94086 63.1875Q567.36273 62.640625 567.36273 61.765625Q567.36273 60.890625 566.94086 60.359375Q566.519 59.8125 565.81586 59.8125ZM570.11273 63.9375Q570.11273 63.65625 570.269 63.46875Q570.44086 63.28125 570.769 63.28125Q571.11273 63.28125 571.2846 63.46875Q571.4565 63.65625 571.4565 63.9375Q571.4565 64.203125 571.2846 64.390625Q571.11273 64.5625 570.769 64.5625Q570.44086 64.5625 570.269 64.390625Q570.11273 64.203125 570.11273 63.9375ZM578.3315 60.859375Q578.3315 62.765625 577.67523 63.703125Q577.0346 64.625 575.644 64.625Q574.2846 64.625 573.62836 63.71875Q572.9721 62.8125 572.94086 61.0L572.94086 59.5625Q572.94086 57.671875 573.5815 56.765625Q574.23773 55.84375 575.62836 55.84375Q577.00336 55.84375 577.6596 56.734375Q578.31586 57.609375 578.3315 59.453125L578.3315 60.859375ZM577.23773 59.375Q577.23773 58.0 576.8471 57.375Q576.4721 56.734375 575.62836 56.734375Q574.80023 56.734375 574.4096 57.375Q574.0346 58.0 574.0346 59.296875L574.0346 61.03125Q574.0346 62.40625 574.42523 63.078125Q574.8315 63.734375 575.644 63.734375Q576.44086 63.734375 576.8315 63.109375Q577.2221 62.484375 577.23773 61.15625L577.23773 59.375ZM584.55023 61.640625L585.73773 61.640625L585.73773 62.515625L584.55023 62.515625L584.55023 64.5L583.4721 64.5L583.4721 62.515625L579.5815 62.515625L579.5815 61.875L583.394 55.96875L584.55023 55.96875L584.55023 61.640625ZM580.81586 61.640625L583.4721 61.640625L583.4721 57.453125L583.3315 57.6875L580.81586 61.640625Z" fill-rule="nonzero"/><path fill="#9277e4" d="M559.5346 64.5L558.4565 64.5L558.4565 57.28125L556.269 58.078125L556.269 57.09375L559.37836 55.921875L559.5346 55.921875L559.5346 64.5ZM567.23773 55.96875L567.23773 56.875L567.0346 56.875Q565.769 56.90625 565.019 57.640625Q564.269 58.359375 564.144 59.671875Q564.8315 58.90625 565.98773 58.90625Q567.0971 58.90625 567.769 59.6875Q568.44086 60.46875 568.44086 61.71875Q568.44086 63.03125 567.7221 63.828125Q567.00336 64.625 565.7846 64.625Q564.56586 64.625 563.80023 63.6875Q563.05023 62.734375 563.05023 61.25L563.05023 60.84375Q563.05023 58.484375 564.05023 57.234375Q565.05023 55.984375 567.0346 55.96875L567.23773 55.96875ZM565.81586 59.8125Q565.25336 59.8125 564.7846 60.140625Q564.31586 60.46875 564.12836 60.984375L564.12836 61.375Q564.12836 62.4375 564.5971 63.078125Q565.0815 63.71875 565.7846 63.71875Q566.519 63.71875 566.94086 63.1875Q567.36273 62.640625 567.36273 61.765625Q567.36273 60.890625 566.94086 60.359375Q566.519 59.8125 565.81586 59.8125ZM570.11273 63.9375Q570.11273 63.65625 570.269 63.46875Q570.44086 63.28125 570.769 63.28125Q571.11273 63.28125 571.2846 63.46875Q571.4565 63.65625 571.4565 63.9375Q571.4565 64.203125 571.2846 64.390625Q571.11273 64.5625 570.769 64.5625Q570.44086 64.5625 570.269 64.390625Q570.11273 64.203125 570.11273 63.9375ZM578.3315 60.859375Q578.3315 62.765625 577.67523 63.703125Q577.0346 64.625 575.644 64.625Q574.2846 64.625 573.62836 63.71875Q572.9721 62.8125 572.94086 61.0L572.94086 59.5625Q572.94086 57.671875 573.5815 56.765625Q574.23773 55.84375 575.62836 55.84375Q577.00336 55.84375 577.6596 56.734375Q578.31586 57.609375 578.3315 59.453125L578.3315 60.859375ZM577.23773 59.375Q577.23773 58.0 576.8471 57.375Q576.4721 56.734375 575.62836 56.734375Q574.80023 56.734375 574.4096 57.375Q574.0346 58.0 574.0346 59.296875L574.0346 61.03125Q574.0346 62.40625 574.42523 63.078125Q574.8315 63.734375 575.644 63.734375Q576.44086 63.734375 576.8315 63.109375Q577.2221 62.484375 577.23773 61.15625L577.23773 59.375ZM584.55023 61.640625L585.73773 61.640625L585.73773 62.515625L584.55023 62.515625L584.55023 64.5L583.4721 64.5L583.4721 62.515625L579.5815 62.515625L579.5815 61.875L583.394 55.96875L584.55023 55.96875L584.55023 61.640625ZM580.81586 61.640625L583.4721 61.640625L583.4721 57.453125L583.3315 57.6875L580.81586 61.640625Z" fill-rule="nonzero"/><path stroke="#ffffff" stroke-width="3.0" stroke-linejoin="round" stroke-linecap="round" d="M707.21783 90.5L701.6241 90.5L701.6241 89.71875L704.5772 86.4375Q705.23346 85.6875 705.48346 85.234375Q705.73346 84.765625 705.73346 84.265625Q705.73346 83.59375 705.3272 83.171875Q704.9366 82.734375 704.2491 82.734375Q703.4522 82.734375 702.9991 83.203125Q702.54596 83.65625 702.54596 84.484375L701.46783 84.484375Q701.46783 83.296875 702.21783 82.578125Q702.98346 81.84375 704.2491 81.84375Q705.4522 81.84375 706.1397 82.46875Q706.8272 83.09375 706.8272 84.140625Q706.8272 85.390625 705.21783 87.140625L702.9366 89.609375L707.21783 89.609375L707.21783 90.5ZM713.98346 86.859375Q713.98346 88.765625 713.3272 89.703125Q712.6866 90.625 711.29596 90.625Q709.9366 90.625 709.28033 89.71875Q708.6241 88.8125 708.59283 87.0L708.59283 85.5625Q708.59283 83.671875 709.23346 82.765625Q709.8897 81.84375 711.28033 81.84375Q712.65533 81.84375 713.3116 82.734375Q713.96783 83.609375 713.98346 85.453125L713.98346 86.859375ZM712.8897 85.375Q712.8897 84.0 712.4991 83.375Q712.1241 82.734375 711.28033 82.734375Q710.4522 82.734375 710.0616 83.375Q709.6866 84.0 709.6866 85.296875L709.6866 87.03125Q709.6866 88.40625 710.0772 89.078125Q710.48346 89.734375 711.29596 89.734375Q712.09283 89.734375 712.48346 89.109375Q712.8741 88.484375 712.8897 87.15625L712.8897 85.375ZM715.7647 89.9375Q715.7647 89.65625 715.92096 89.46875Q716.09283 89.28125 716.42096 89.28125Q716.7647 89.28125 716.9366 89.46875Q717.10846 89.65625 717.10846 89.9375Q717.10846 90.203125 716.9366 90.390625Q716.7647 90.5625 716.42096 90.5625Q716.09283 90.5625 715.92096 90.390625Q715.7647 90.203125 715.7647 89.9375ZM722.78033 86.75Q722.4522 87.15625 721.96783 87.40625Q721.4991 87.640625 720.9366 87.640625Q720.2022 87.640625 719.65533 87.28125Q719.10846 86.921875 718.8116 86.265625Q718.5147 85.59375 718.5147 84.796875Q718.5147 83.953125 718.8272 83.265625Q719.15533 82.578125 719.7491 82.21875Q720.35846 81.84375 721.15533 81.84375Q722.42096 81.84375 723.1397 82.796875Q723.8741 83.75 723.8741 85.375L723.8741 85.6875Q723.8741 88.1875 722.8897 89.328125Q721.90533 90.46875 719.92096 90.5L719.7022 90.5L719.7022 89.59375L719.9366 89.59375Q721.28033 89.5625 721.9991 88.890625Q722.71783 88.21875 722.78033 86.75ZM721.10846 86.75Q721.65533 86.75 722.10846 86.421875Q722.5772 86.078125 722.79596 85.59375L722.79596 85.15625Q722.79596 84.09375 722.3272 83.421875Q721.85846 82.75 721.15533 82.75Q720.4366 82.75 719.9991 83.296875Q719.5772 83.84375 719.5772 84.75Q719.5772 85.625 719.98346 86.1875Q720.40533 86.75 721.10846 86.75ZM730.8116 84.1875Q730.8116 84.828125 730.46783 85.328125Q730.1241 85.828125 729.5616 86.109375Q730.21783 86.390625 730.60846 86.953125Q730.9991 87.5 730.9991 88.203125Q730.9991 89.296875 730.2491 89.96875Q729.5147 90.625 728.29596 90.625Q727.0616 90.625 726.3116 89.96875Q725.5772 89.296875 725.5772 88.203125Q725.5772 87.5 725.9522 86.953125Q726.3272 86.390625 726.9991 86.109375Q726.4366 85.828125 726.10846 85.328125Q725.78033 84.828125 725.78033 84.1875Q725.78033 83.109375 726.46783 82.484375Q727.15533 81.84375 728.29596 81.84375Q729.42096 81.84375 730.10846 82.484375Q730.8116 83.109375 730.8116 84.1875ZM729.92096 88.171875Q729.92096 87.453125 729.46783 87.015625Q729.0147 86.5625 728.28033 86.5625Q727.54596 86.5625 727.09283 87.015625Q726.65533 87.453125 726.65533 88.1875Q726.65533 88.90625 727.09283 89.328125Q727.53033 89.734375 728.29596 89.734375Q729.04596 89.734375 729.48346 89.3125Q729.92096 88.890625 729.92096 88.171875ZM728.29596 82.734375Q727.65533 82.734375 727.2491 83.140625Q726.85846 83.53125 726.85846 84.21875Q726.85846 84.859375 727.2491 85.265625Q727.6397 85.671875 728.28033 85.671875Q728.9366 85.671875 729.3272 85.265625Q729.71783 84.859375 729.71783 84.21875Q729.71783 83.5625 729.3116 83.15625Q728.90533 82.734375 728.29596 82.734375Z" fill-rule="nonzero"/><path fill="#9277e4" d="M707.21783 90.5L701.6241 90.5L701.6241 89.71875L704.5772 86.4375Q705.23346 85.6875 705.48346 85.234375Q705.73346 84.765625 705.73346 84.265625Q705.73346 83.59375 705.3272 83.171875Q704.9366 82.734375 704.2491 82.734375Q703.4522 82.734375 702.9991 83.203125Q702.54596 83.65625 702.54596 84.484375L701.46783 84.484375Q701.46783 83.296875 702.21783 82.578125Q702.98346 81.84375 704.2491 81.84375Q705.4522 81.84375 706.1397 82.46875Q706.8272 83.09375 706.8272 84.140625Q706.8272 85.390625 705.21783 87.140625L702.9366 89.609375L707.21783 89.609375L707.21783 90.5ZM713.98346 86.859375Q713.98346 88.765625 713.3272 89.703125Q712.6866 90.625 711.29596 90.625Q709.9366 90.625 709.28033 89.71875Q708.6241 88.8125 708.59283 87.0L708.59283 85.5625Q708.59283 83.671875 709.23346 82.765625Q709.8897 81.84375 711.28033 81.84375Q712.65533 81.84375 713.3116 82.734375Q713.96783 83.609375 713.98346 85.453125L713.98346 86.859375ZM712.8897 85.375Q712.8897 84.0 712.4991 83.375Q712.1241 82.734375 711.28033 82.734375Q710.4522 82.734375 710.0616 83.375Q709.6866 84.0 709.6866 85.296875L709.6866 87.03125Q709.6866 88.40625 710.0772 89.078125Q710.48346 89.734375 711.29596 89.734375Q712.09283 89.734375 712.48346 89.109375Q712.8741 88.484375 712.8897 87.15625L712.8897 85.375ZM715.7647 89.9375Q715.7647 89.65625 715.92096 89.46875Q716.09283 89.28125 716.42096 89.28125Q716.7647 89.28125 716.9366 89.46875Q717.10846 89.65625 717.10846 89.9375Q717.10846 90.203125 716.9366 90.390625Q716.7647 90.5625 716.42096 90.5625Q716.09283 90.5625 715.92096 90.390625Q715.7647 90.203125 715.7647 89.9375ZM722.78033 86.75Q722.4522 87.15625 721.96783 87.40625Q721.4991 87.640625 720.9366 87.640625Q720.2022 87.640625 719.65533 87.28125Q719.10846 86.921875 718.8116 86.265625Q718.5147 85.59375 718.5147 84.796875Q718.5147 83.953125 718.8272 83.265625Q719.15533 82.578125 719.7491 82.21875Q720.35846 81.84375 721.15533 81.84375Q722.42096 81.84375 723.1397 82.796875Q723.8741 83.75 723.8741 85.375L723.8741 85.6875Q723.8741 88.1875 722.8897 89.328125Q721.90533 90.46875 719.92096 90.5L719.7022 90.5L719.7022 89.59375L719.9366 89.59375Q721.28033 89.5625 721.9991 88.890625Q722.71783 88.21875 722.78033 86.75ZM721.10846 86.75Q721.65533 86.75 722.10846 86.421875Q722.5772 86.078125 722.79596 85.59375L722.79596 85.15625Q722.79596 84.09375 722.3272 83.421875Q721.85846 82.75 721.15533 82.75Q720.4366 82.75 719.9991 83.296875Q719.5772 83.84375 719.5772 84.75Q719.5772 85.625 719.98346 86.1875Q720.40533 86.75 721.10846 86.75ZM730.8116 84.1875Q730.8116 84.828125 730.46783 85.328125Q730.1241 85.828125 729.5616 86.109375Q730.21783 86.390625 730.60846 86.953125Q730.9991 87.5 730.9991 88.203125Q730.9991 89.296875 730.2491 89.96875Q729.5147 90.625 728.29596 90.625Q727.0616 90.625 726.3116 89.96875Q725.5772 89.296875 725.5772 88.203125Q725.5772 87.5 725.9522 86.953125Q726.3272 86.390625 726.9991 86.109375Q726.4366 85.828125 726.10846 85.328125Q725.78033 84.828125 725.78033 84.1875Q725.78033 83.109375 726.46783 82.484375Q727.15533 81.84375 728.29596 81.84375Q729.42096 81.84375 730.10846 82.484375Q730.8116 83.109375 730.8116 84.1875ZM729.92096 88.171875Q729.92096 87.453125 729.46783 87.015625Q729.0147 86.5625 728.28033 86.5625Q727.54596 86.5625 727.09283 87.015625Q726.65533 87.453125 726.65533 88.1875Q726.65533 88.90625 727.09283 89.328125Q727.53033 89.734375 728.29596 89.734375Q729.04596 89.734375 729.48346 89.3125Q729.92096 88.890625 729.92096 88.171875ZM728.29596 82.734375Q727.65533 82.734375 727.2491 83.140625Q726.85846 83.53125 726.85846 84.21875Q726.85846 84.859375 727.2491 85.265625Q727.6397 85.671875 728.28033 85.671875Q728.9366 85.671875 729.3272 85.265625Q729.71783 84.859375 729.71783 84.21875Q729.71783 83.5625 729.3116 83.15625Q728.90533 82.734375 728.29596 82.734375Z" fill-rule="nonzero"/><path stroke="#ffffff" stroke-width="3.0" stroke-linejoin="round" stroke-linecap="round" d="M793.5355 116.5L787.9418 116.5L787.9418 115.71875L790.8949 112.4375Q791.55115 111.6875 791.80115 111.234375Q792.05115 110.765625 792.05115 110.265625Q792.05115 109.59375 791.6449 109.171875Q791.2543 108.734375 790.5668 108.734375Q789.7699 108.734375 789.3168 109.203125Q788.86365 109.65625 788.86365 110.484375L787.7855 110.484375Q787.7855 109.296875 788.5355 108.578125Q789.30115 107.84375 790.5668 107.84375Q791.7699 107.84375 792.4574 108.46875Q793.1449 109.09375 793.1449 110.140625Q793.1449 111.390625 791.5355 113.140625L789.2543 115.609375L793.5355 115.609375L793.5355 116.5ZM796.5199 111.703125L797.3324 111.703125Q798.11365 111.6875 798.55115 111.296875Q798.98865 110.90625 798.98865 110.234375Q798.98865 108.734375 797.48865 108.734375Q796.7855 108.734375 796.36365 109.140625Q795.9574 109.546875 795.9574 110.203125L794.86365 110.203125Q794.86365 109.1875 795.598 108.515625Q796.348 107.84375 797.48865 107.84375Q798.6918 107.84375 799.3793 108.484375Q800.0668 109.125 800.0668 110.265625Q800.0668 110.828125 799.7074 111.34375Q799.348 111.859375 798.723 112.125Q799.42615 112.34375 799.80115 112.859375Q800.1918 113.375 800.1918 114.125Q800.1918 115.265625 799.4418 115.953125Q798.6918 116.625 797.48865 116.625Q796.30115 116.625 795.5355 115.96875Q794.7855 115.3125 794.7855 114.25L795.8793 114.25Q795.8793 114.921875 796.3168 115.328125Q796.7543 115.734375 797.5043 115.734375Q798.2855 115.734375 798.6918 115.328125Q799.11365 114.90625 799.11365 114.140625Q799.11365 113.40625 798.6605 113.015625Q798.2074 112.609375 797.3324 112.59375L796.5199 112.59375L796.5199 111.703125ZM802.0824 115.9375Q802.0824 115.65625 802.23865 115.46875Q802.4105 115.28125 802.73865 115.28125Q803.0824 115.28125 803.2543 115.46875Q803.42615 115.65625 803.42615 115.9375Q803.42615 116.203125 803.2543 116.390625Q803.0824 116.5625 802.73865 116.5625Q802.4105 116.5625 802.23865 116.390625Q802.0824 116.203125 802.0824 115.9375ZM809.098 112.75Q808.7699 113.15625 808.2855 113.40625Q807.8168 113.640625 807.2543 113.640625Q806.5199 113.640625 805.973 113.28125Q805.42615 112.921875 805.1293 112.265625Q804.8324 111.59375 804.8324 110.796875Q804.8324 109.953125 805.1449 109.265625Q805.473 108.578125 806.0668 108.21875Q806.67615 107.84375 807.473 107.84375Q808.73865 107.84375 809.4574 108.796875Q810.1918 109.75 810.1918 111.375L810.1918 111.6875Q810.1918 114.1875 809.2074 115.328125Q808.223 116.46875 806.23865 116.5L806.0199 116.5L806.0199 115.59375L806.2543 115.59375Q807.598 115.5625 808.3168 114.890625Q809.0355 114.21875 809.098 112.75ZM807.42615 112.75Q807.973 112.75 808.42615 112.421875Q808.8949 112.078125 809.11365 111.59375L809.11365 111.15625Q809.11365 110.09375 808.6449 109.421875Q808.17615 108.75 807.473 108.75Q806.7543 108.75 806.3168 109.296875Q805.8949 109.84375 805.8949 110.75Q805.8949 111.625 806.30115 112.1875Q806.723 112.75 807.42615 112.75ZM817.30115 112.859375Q817.30115 114.765625 816.6449 115.703125Q816.0043 116.625 814.61365 116.625Q813.2543 116.625 812.598 115.71875Q811.9418 114.8125 811.9105 113.0L811.9105 111.5625Q811.9105 109.671875 812.55115 108.765625Q813.2074 107.84375 814.598 107.84375Q815.973 107.84375 816.6293 108.734375Q817.2855 109.609375 817.30115 111.453125L817.30115 112.859375ZM816.2074 111.375Q816.2074 110.0 815.8168 109.375Q815.4418 108.734375 814.598 108.734375Q813.7699 108.734375 813.3793 109.375Q813.0043 110.0 813.0043 111.296875L813.0043 113.03125Q813.0043 114.40625 813.3949 115.078125Q813.80115 115.734375 814.61365 115.734375Q815.4105 115.734375 815.80115 115.109375Q816.1918 114.484375 816.2074 113.15625L816.2074 111.375Z" fill-rule="nonzero"/><path fill="#9277e4" d="M793.5355 116.5L787.9418 116.5L787.9418 115.71875L790.8949 112.4375Q791.55115 111.6875 791.80115 111.234375Q792.05115 110.765625 792.05115 110.265625Q792.05115 109.59375 791.6449 109.171875Q791.2543 108.734375 790.5668 108.734375Q789.7699 108.734375 789.3168 109.203125Q788.86365 109.65625 788.86365 110.484375L787.7855 110.484375Q787.7855 109.296875 788.5355 108.578125Q789.30115 107.84375 790.5668 107.84375Q791.7699 107.84375 792.4574 108.46875Q793.1449 109.09375 793.1449 110.140625Q793.1449 111.390625 791.5355 113.140625L789.2543 115.609375L793.5355 115.609375L793.5355 116.5ZM796.5199 111.703125L797.3324 111.703125Q798.11365 111.6875 798.55115 111.296875Q798.98865 110.90625 798.98865 110.234375Q798.98865 108.734375 797.48865 108.734375Q796.7855 108.734375 796.36365 109.140625Q795.9574 109.546875 795.9574 110.203125L794.86365 110.203125Q794.86365 109.1875 795.598 108.515625Q796.348 107.84375 797.48865 107.84375Q798.6918 107.84375 799.3793 108.484375Q800.0668 109.125 800.0668 110.265625Q800.0668 110.828125 799.7074 111.34375Q799.348 111.859375 798.723 112.125Q799.42615 112.34375 799.80115 112.859375Q800.1918 113.375 800.1918 114.125Q800.1918 115.265625 799.4418 115.953125Q798.6918 116.625 797.48865 116.625Q796.30115 116.625 795.5355 115.96875Q794.7855 115.3125 794.7855 114.25L795.8793 114.25Q795.8793 114.921875 796.3168 115.328125Q796.7543 115.734375 797.5043 115.734375Q798.2855 115.734375 798.6918 115.328125Q799.11365 114.90625 799.11365 114.140625Q799.11365 113.40625 798.6605 113.015625Q798.2074 112.609375 797.3324 112.59375L796.5199 112.59375L796.5199 111.703125ZM802.0824 115.9375Q802.0824 115.65625 802.23865 115.46875Q802.4105 115.28125 802.73865 115.28125Q803.0824 115.28125 803.2543 115.46875Q803.42615 115.65625 803.42615 115.9375Q803.42615 116.203125 803.2543 116.390625Q803.0824 116.5625 802.73865 116.5625Q802.4105 116.5625 802.23865 116.390625Q802.0824 116.203125 802.0824 115.9375ZM809.098 112.75Q808.7699 113.15625 808.2855 113.40625Q807.8168 113.640625 807.2543 113.640625Q806.5199 113.640625 805.973 113.28125Q805.42615 112.921875 805.1293 112.265625Q804.8324 111.59375 804.8324 110.796875Q804.8324 109.953125 805.1449 109.265625Q805.473 108.578125 806.0668 108.21875Q806.67615 107.84375 807.473 107.84375Q808.73865 107.84375 809.4574 108.796875Q810.1918 109.75 810.1918 111.375L810.1918 111.6875Q810.1918 114.1875 809.2074 115.328125Q808.223 116.46875 806.23865 116.5L806.0199 116.5L806.0199 115.59375L806.2543 115.59375Q807.598 115.5625 808.3168 114.890625Q809.0355 114.21875 809.098 112.75ZM807.42615 112.75Q807.973 112.75 808.42615 112.421875Q808.8949 112.078125 809.11365 111.59375L809.11365 111.15625Q809.11365 110.09375 808.6449 109.421875Q808.17615 108.75 807.473 108.75Q806.7543 108.75 806.3168 109.296875Q805.8949 109.84375 805.8949 110.75Q805.8949 111.625 806.30115 112.1875Q806.723 112.75 807.42615 112.75ZM817.30115 112.859375Q817.30115 114.765625 816.6449 115.703125Q816.0043 116.625 814.61365 116.625Q813.2543 116.625 812.598 115.71875Q811.9418 114.8125 811.9105 113.0L811.9105 111.5625Q811.9105 109.671875 812.55115 108.765625Q813.2074 107.84375 814.598 107.84375Q815.973 107.84375 816.6293 108.734375Q817.2855 109.609375 817.30115 111.453125L817.30115 112.859375ZM816.2074 111.375Q816.2074 110.0 815.8168 109.375Q815.4418 108.734375 814.598 108.734375Q813.7699 108.734375 813.3793 109.375Q813.0043 110.0 813.0043 111.296875L813.0043 113.03125Q813.0043 114.40625 813.3949 115.078125Q813.80115 115.734375 814.61365 115.734375Q815.4105 115.734375 815.80115 115.109375Q816.1918 114.484375 816.2074 113.15625L816.2074 111.375Z" fill-rule="nonzero"/><path stroke="#ffffff" stroke-width="3.0" stroke-linejoin="round" stroke-linecap="round" d="M846.39813 142.5L840.8044 142.5L840.8044 141.71875L843.7575 138.4375Q844.41376 137.6875 844.66376 137.23438Q844.91376 136.76562 844.91376 136.26562Q844.91376 135.59375 844.5075 135.17188Q844.1169 134.73438 843.4294 134.73438Q842.6325 134.73438 842.1794 135.20312Q841.72626 135.65625 841.72626 136.48438L840.64813 136.48438Q840.64813 135.29688 841.39813 134.57812Q842.16376 133.84375 843.4294 133.84375Q844.6325 133.84375 845.32 134.46875Q846.0075 135.09375 846.0075 136.14062Q846.0075 137.39062 844.39813 139.14062L842.1169 141.60938L846.39813 141.60938L846.39813 142.5ZM848.3044 138.21875L848.7419 133.96875L853.1169 133.96875L853.1169 134.96875L849.66376 134.96875L849.39813 137.29688Q850.03876 136.92188 850.83563 136.92188Q851.9919 136.92188 852.6794 137.70312Q853.3669 138.46875 853.3669 139.78125Q853.3669 141.09375 852.64813 141.85938Q851.945 142.625 850.66376 142.625Q849.53876 142.625 848.82 142.0Q848.10126 141.35938 848.0075 140.25L849.02313 140.25Q849.1325 140.98438 849.5544 141.35938Q849.97626 141.73438 850.66376 141.73438Q851.41376 141.73438 851.85126 141.21875Q852.28876 140.70312 852.28876 139.79688Q852.28876 138.9375 851.82 138.42188Q851.35126 137.90625 850.57 137.90625Q849.8669 137.90625 849.46063 138.20312L849.1794 138.4375L848.3044 138.21875ZM854.945 141.9375Q854.945 141.65625 855.10126 141.46875Q855.27313 141.28125 855.60126 141.28125Q855.945 141.28125 856.1169 141.46875Q856.28876 141.65625 856.28876 141.9375Q856.28876 142.20312 856.1169 142.39062Q855.945 142.5625 855.60126 142.5625Q855.27313 142.5625 855.10126 142.39062Q854.945 142.20312 854.945 141.9375ZM863.32 134.57812L859.78876 142.5L858.64813 142.5L862.16376 134.85938L857.5544 134.85938L857.5544 133.96875L863.32 133.96875L863.32 134.57812ZM870.16376 138.85938Q870.16376 140.76562 869.5075 141.70312Q868.8669 142.625 867.47626 142.625Q866.1169 142.625 865.46063 141.71875Q864.8044 140.8125 864.77313 139.0L864.77313 137.5625Q864.77313 135.67188 865.41376 134.76562Q866.07 133.84375 867.46063 133.84375Q868.83563 133.84375 869.4919 134.73438Q870.14813 135.60938 870.16376 137.45312L870.16376 138.85938ZM869.07 137.375Q869.07 136.0 868.6794 135.375Q868.3044 134.73438 867.46063 134.73438Q866.6325 134.73438 866.2419 135.375Q865.8669 136.0 865.8669 137.29688L865.8669 139.03125Q865.8669 140.40625 866.2575 141.07812Q866.66376 141.73438 867.47626 141.73438Q868.27313 141.73438 868.66376 141.10938Q869.0544 140.48438 869.07 139.15625L869.07 137.375Z" fill-rule="nonzero"/><path fill="#9277e4" d="M846.39813 142.5L840.8044 142.5L840.8044 141.71875L843.7575 138.4375Q844.41376 137.6875 844.66376 137.23438Q844.91376 136.76562 844.91376 136.26562Q844.91376 135.59375 844.5075 135.17188Q844.1169 134.73438 843.4294 134.73438Q842.6325 134.73438 842.1794 135.20312Q841.72626 135.65625 841.72626 136.48438L840.64813 136.48438Q840.64813 135.29688 841.39813 134.57812Q842.16376 133.84375 843.4294 133.84375Q844.6325 133.84375 845.32 134.46875Q846.0075 135.09375 846.0075 136.14062Q846.0075 137.39062 844.39813 139.14062L842.1169 141.60938L846.39813 141.60938L846.39813 142.5ZM848.3044 138.21875L848.7419 133.96875L853.1169 133.96875L853.1169 134.96875L849.66376 134.96875L849.39813 137.29688Q850.03876 136.92188 850.83563 136.92188Q851.9919 136.92188 852.6794 137.70312Q853.3669 138.46875 853.3669 139.78125Q853.3669 141.09375 852.64813 141.85938Q851.945 142.625 850.66376 142.625Q849.53876 142.625 848.82 142.0Q848.10126 141.35938 848.0075 140.25L849.02313 140.25Q849.1325 140.98438 849.5544 141.35938Q849.97626 141.73438 850.66376 141.73438Q851.41376 141.73438 851.85126 141.21875Q852.28876 140.70312 852.28876 139.79688Q852.28876 138.9375 851.82 138.42188Q851.35126 137.90625 850.57 137.90625Q849.8669 137.90625 849.46063 138.20312L849.1794 138.4375L848.3044 138.21875ZM854.945 141.9375Q854.945 141.65625 855.10126 141.46875Q855.27313 141.28125 855.60126 141.28125Q855.945 141.28125 856.1169 141.46875Q856.28876 141.65625 856.28876 141.9375Q856.28876 142.20312 856.1169 142.39062Q855.945 142.5625 855.60126 142.5625Q855.27313 142.5625 855.10126 142.39062Q854.945 142.20312 854.945 141.9375ZM863.32 134.57812L859.78876 142.5L858.64813 142.5L862.16376 134.85938L857.5544 134.85938L857.5544 133.96875L863.32 133.96875L863.32 134.57812ZM870.16376 138.85938Q870.16376 140.76562 869.5075 141.70312Q868.8669 142.625 867.47626 142.625Q866.1169 142.625 865.46063 141.71875Q864.8044 140.8125 864.77313 139.0L864.77313 137.5625Q864.77313 135.67188 865.41376 134.76562Q866.07 133.84375 867.46063 133.84375Q868.83563 133.84375 869.4919 134.73438Q870.14813 135.60938 870.16376 137.45312L870.16376 138.85938ZM869.07 137.375Q869.07 136.0 868.6794 135.375Q868.3044 134.73438 867.46063 134.73438Q866.6325 134.73438 866.2419 135.375Q865.8669 136.0 865.8669 137.29688L865.8669 139.03125Q865.8669 140.40625 866.2575 141.07812Q866.66376 141.73438 867.47626 141.73438Q868.27313 141.73438 868.66376 141.10938Q869.0544 140.48438 869.07 139.15625L869.07 137.375Z" fill-rule="nonzero"/><path stroke="#ffffff" stroke-width="3.0" stroke-linejoin="round" stroke-linecap="round" d="M860.66486 168.5L855.0711 168.5L855.0711 167.71875L858.02423 164.4375Q858.6805 163.6875 858.9305 163.23438Q859.1805 162.76562 859.1805 162.26562Q859.1805 161.59375 858.77423 161.17188Q858.3836 160.73438 857.6961 160.73438Q856.89923 160.73438 856.4461 161.20312Q855.993 161.65625 855.993 162.48438L854.91486 162.48438Q854.91486 161.29688 855.66486 160.57812Q856.4305 159.84375 857.6961 159.84375Q858.89923 159.84375 859.58673 160.46875Q860.27423 161.09375 860.27423 162.14062Q860.27423 163.39062 858.66486 165.14062L856.3836 167.60938L860.66486 167.60938L860.66486 168.5ZM866.33673 159.96875L866.33673 160.875L866.1336 160.875Q864.868 160.90625 864.118 161.64062Q863.368 162.35938 863.243 163.67188Q863.9305 162.90625 865.08673 162.90625Q866.1961 162.90625 866.868 163.6875Q867.53986 164.46875 867.53986 165.71875Q867.53986 167.03125 866.8211 167.82812Q866.10236 168.625 864.8836 168.625Q863.66486 168.625 862.89923 167.6875Q862.14923 166.73438 862.14923 165.25L862.14923 164.84375Q862.14923 162.48438 863.14923 161.23438Q864.14923 159.98438 866.1336 159.96875L866.33673 159.96875ZM864.91486 163.8125Q864.35236 163.8125 863.8836 164.14062Q863.41486 164.46875 863.22736 164.98438L863.22736 165.375Q863.22736 166.4375 863.6961 167.07812Q864.1805 167.71875 864.8836 167.71875Q865.618 167.71875 866.03986 167.1875Q866.46173 166.64062 866.46173 165.76562Q866.46173 164.89062 866.03986 164.35938Q865.618 163.8125 864.91486 163.8125ZM869.21173 167.9375Q869.21173 167.65625 869.368 167.46875Q869.53986 167.28125 869.868 167.28125Q870.21173 167.28125 870.3836 167.46875Q870.5555 167.65625 870.5555 167.9375Q870.5555 168.20312 870.3836 168.39062Q870.21173 168.5625 869.868 168.5625Q869.53986 168.5625 869.368 168.39062Q869.21173 168.20312 869.21173 167.9375ZM875.6336 168.5L874.5555 168.5L874.5555 161.28125L872.368 162.07812L872.368 161.09375L875.47736 159.92188L875.6336 159.92188L875.6336 168.5ZM884.2586 162.1875Q884.2586 162.82812 883.91486 163.32812Q883.5711 163.82812 883.0086 164.10938Q883.66486 164.39062 884.0555 164.95312Q884.4461 165.5 884.4461 166.20312Q884.4461 167.29688 883.6961 167.96875Q882.96173 168.625 881.743 168.625Q880.5086 168.625 879.7586 167.96875Q879.02423 167.29688 879.02423 166.20312Q879.02423 165.5 879.39923 164.95312Q879.77423 164.39062 880.4461 164.10938Q879.8836 163.82812 879.5555 163.32812Q879.22736 162.82812 879.22736 162.1875Q879.22736 161.10938 879.91486 160.48438Q880.60236 159.84375 881.743 159.84375Q882.868 159.84375 883.5555 160.48438Q884.2586 161.10938 884.2586 162.1875ZM883.368 166.17188Q883.368 165.45312 882.91486 165.01562Q882.46173 164.5625 881.72736 164.5625Q880.993 164.5625 880.53986 165.01562Q880.10236 165.45312 880.10236 166.1875Q880.10236 166.90625 880.53986 167.32812Q880.97736 167.73438 881.743 167.73438Q882.493 167.73438 882.9305 167.3125Q883.368 166.89062 883.368 166.17188ZM881.743 160.73438Q881.10236 160.73438 880.6961 161.14062Q880.3055 161.53125 880.3055 162.21875Q880.3055 162.85938 880.6961 163.26562Q881.08673 163.67188 881.72736 163.67188Q882.3836 163.67188 882.77423 163.26562Q883.16486 162.85938 883.16486 162.21875Q883.16486 161.5625 882.7586 161.15625Q882.35236 160.73438 881.743 160.73438Z" fill-rule="nonzero"/><path fill="#9277e4" d="M860.66486 168.5L855.0711 168.5L855.0711 167.71875L858.02423 164.4375Q858.6805 163.6875 858.9305 163.23438Q859.1805 162.76562 859.1805 162.26562Q859.1805 161.59375 858.77423 161.17188Q858.3836 160.73438 857.6961 160.73438Q856.89923 160.73438 856.4461 161.20312Q855.993 161.65625 855.993 162.48438L854.91486 162.48438Q854.91486 161.29688 855.66486 160.57812Q856.4305 159.84375 857.6961 159.84375Q858.89923 159.84375 859.58673 160.46875Q860.27423 161.09375 860.27423 162.14062Q860.27423 163.39062 858.66486 165.14062L856.3836 167.60938L860.66486 167.60938L860.66486 168.5ZM866.33673 159.96875L866.33673 160.875L866.1336 160.875Q864.868 160.90625 864.118 161.64062Q863.368 162.35938 863.243 163.67188Q863.9305 162.90625 865.08673 162.90625Q866.1961 162.90625 866.868 163.6875Q867.53986 164.46875 867.53986 165.71875Q867.53986 167.03125 866.8211 167.82812Q866.10236 168.625 864.8836 168.625Q863.66486 168.625 862.89923 167.6875Q862.14923 166.73438 862.14923 165.25L862.14923 164.84375Q862.14923 162.48438 863.14923 161.23438Q864.14923 159.98438 866.1336 159.96875L866.33673 159.96875ZM864.91486 163.8125Q864.35236 163.8125 863.8836 164.14062Q863.41486 164.46875 863.22736 164.98438L863.22736 165.375Q863.22736 166.4375 863.6961 167.07812Q864.1805 167.71875 864.8836 167.71875Q865.618 167.71875 866.03986 167.1875Q866.46173 166.64062 866.46173 165.76562Q866.46173 164.89062 866.03986 164.35938Q865.618 163.8125 864.91486 163.8125ZM869.21173 167.9375Q869.21173 167.65625 869.368 167.46875Q869.53986 167.28125 869.868 167.28125Q870.21173 167.28125 870.3836 167.46875Q870.5555 167.65625 870.5555 167.9375Q870.5555 168.20312 870.3836 168.39062Q870.21173 168.5625 869.868 168.5625Q869.53986 168.5625 869.368 168.39062Q869.21173 168.20312 869.21173 167.9375ZM875.6336 168.5L874.5555 168.5L874.5555 161.28125L872.368 162.07812L872.368 161.09375L875.47736 159.92188L875.6336 159.92188L875.6336 168.5ZM884.2586 162.1875Q884.2586 162.82812 883.91486 163.32812Q883.5711 163.82812 883.0086 164.10938Q883.66486 164.39062 884.0555 164.95312Q884.4461 165.5 884.4461 166.20312Q884.4461 167.29688 883.6961 167.96875Q882.96173 168.625 881.743 168.625Q880.5086 168.625 879.7586 167.96875Q879.02423 167.29688 879.02423 166.20312Q879.02423 165.5 879.39923 164.95312Q879.77423 164.39062 880.4461 164.10938Q879.8836 163.82812 879.5555 163.32812Q879.22736 162.82812 879.22736 162.1875Q879.22736 161.10938 879.91486 160.48438Q880.60236 159.84375 881.743 159.84375Q882.868 159.84375 883.5555 160.48438Q884.2586 161.10938 884.2586 162.1875ZM883.368 166.17188Q883.368 165.45312 882.91486 165.01562Q882.46173 164.5625 881.72736 164.5625Q880.993 164.5625 880.53986 165.01562Q880.10236 165.45312 880.10236 166.1875Q880.10236 166.90625 880.53986 167.32812Q880.97736 167.73438 881.743 167.73438Q882.493 167.73438 882.9305 167.3125Q883.368 166.89062 883.368 166.17188ZM881.743 160.73438Q881.10236 160.73438 880.6961 161.14062Q880.3055 161.53125 880.3055 162.21875Q880.3055 162.85938 880.6961 163.26562Q881.08673 163.67188 881.72736 163.67188Q882.3836 163.67188 882.77423 163.26562Q883.16486 162.85938 883.16486 162.21875Q883.16486 161.5625 882.7586 161.15625Q882.35236 160.73438 881.743 160.73438Z" fill-rule="nonzero"/><path stroke="#ffffff" stroke-width="3.0" stroke-linejoin="round" stroke-linecap="round" d="M864.2019 194.5L858.60815 194.5L858.60815 193.71875L861.5613 190.4375Q862.2175 189.6875 862.4675 189.23438Q862.7175 188.76562 862.7175 188.26562Q862.7175 187.59375 862.3113 187.17188Q861.92065 186.73438 861.23315 186.73438Q860.4363 186.73438 859.98315 187.20312Q859.53 187.65625 859.53 188.48438L858.4519 188.48438Q858.4519 187.29688 859.2019 186.57812Q859.9675 185.84375 861.23315 185.84375Q862.4363 185.84375 863.1238 186.46875Q863.8113 187.09375 863.8113 188.14062Q863.8113 189.39062 862.2019 191.14062L859.92065 193.60938L864.2019 193.60938L864.2019 194.5ZM869.8738 185.96875L869.8738 186.875L869.67065 186.875Q868.405 186.90625 867.655 187.64062Q866.905 188.35938 866.78 189.67188Q867.4675 188.90625 868.6238 188.90625Q869.73315 188.90625 870.405 189.6875Q871.0769 190.46875 871.0769 191.71875Q871.0769 193.03125 870.35815 193.82812Q869.6394 194.625 868.42065 194.625Q867.2019 194.625 866.4363 193.6875Q865.6863 192.73438 865.6863 191.25L865.6863 190.84375Q865.6863 188.48438 866.6863 187.23438Q867.6863 185.98438 869.67065 185.96875L869.8738 185.96875ZM868.4519 189.8125Q867.8894 189.8125 867.42065 190.14062Q866.9519 190.46875 866.7644 190.98438L866.7644 191.375Q866.7644 192.4375 867.23315 193.07812Q867.7175 193.71875 868.42065 193.71875Q869.155 193.71875 869.5769 193.1875Q869.9988 192.64062 869.9988 191.76562Q869.9988 190.89062 869.5769 190.35938Q869.155 189.8125 868.4519 189.8125ZM872.7488 193.9375Q872.7488 193.65625 872.905 193.46875Q873.0769 193.28125 873.405 193.28125Q873.7488 193.28125 873.92065 193.46875Q874.0925 193.65625 874.0925 193.9375Q874.0925 194.20312 873.92065 194.39062Q873.7488 194.5625 873.405 194.5625Q873.0769 194.5625 872.905 194.39062Q872.7488 194.20312 872.7488 193.9375ZM877.1863 189.70312L877.9988 189.70312Q878.78 189.6875 879.2175 189.29688Q879.655 188.90625 879.655 188.23438Q879.655 186.73438 878.155 186.73438Q877.4519 186.73438 877.03 187.14062Q876.6238 187.54688 876.6238 188.20312L875.53 188.20312Q875.53 187.1875 876.2644 186.51562Q877.0144 185.84375 878.155 185.84375Q879.35815 185.84375 880.04565 186.48438Q880.73315 187.125 880.73315 188.26562Q880.73315 188.82812 880.3738 189.34375Q880.0144 189.85938 879.3894 190.125Q880.0925 190.34375 880.4675 190.85938Q880.85815 191.375 880.85815 192.125Q880.85815 193.26562 880.10815 193.95312Q879.35815 194.625 878.155 194.625Q876.9675 194.625 876.2019 193.96875Q875.4519 193.3125 875.4519 192.25L876.54565 192.25Q876.54565 192.92188 876.98315 193.32812Q877.42065 193.73438 878.17065 193.73438Q878.9519 193.73438 879.35815 193.32812Q879.78 192.90625 879.78 192.14062Q879.78 191.40625 879.3269 191.01562Q878.8738 190.60938 877.9988 190.59375L877.1863 190.59375L877.1863 189.70312ZM887.9675 190.85938Q887.9675 192.76562 887.3113 193.70312Q886.67065 194.625 885.28 194.625Q883.92065 194.625 883.2644 193.71875Q882.60815 192.8125 882.5769 191.0L882.5769 189.5625Q882.5769 187.67188 883.2175 186.76562Q883.8738 185.84375 885.2644 185.84375Q886.6394 185.84375 887.29565 186.73438Q887.9519 187.60938 887.9675 189.45312L887.9675 190.85938ZM886.8738 189.375Q886.8738 188.0 886.48315 187.375Q886.10815 186.73438 885.2644 186.73438Q884.4363 186.73438 884.04565 187.375Q883.67065 188.0 883.67065 189.29688L883.67065 191.03125Q883.67065 192.40625 884.0613 193.07812Q884.4675 193.73438 885.28 193.73438Q886.0769 193.73438 886.4675 193.10938Q886.85815 192.48438 886.8738 191.15625L886.8738 189.375Z" fill-rule="nonzero"/><path fill="#9277e4" d="M864.2019 194.5L858.60815 194.5L858.60815 193.71875L861.5613 190.4375Q862.2175 189.6875 862.4675 189.23438Q862.7175 188.76562 862.7175 188.26562Q862.7175 187.59375 862.3113 187.17188Q861.92065 186.73438 861.23315 186.73438Q860.4363 186.73438 859.98315 187.20312Q859.53 187.65625 859.53 188.48438L858.4519 188.48438Q858.4519 187.29688 859.2019 186.57812Q859.9675 185.84375 861.23315 185.84375Q862.4363 185.84375 863.1238 186.46875Q863.8113 187.09375 863.8113 188.14062Q863.8113 189.39062 862.2019 191.14062L859.92065 193.60938L864.2019 193.60938L864.2019 194.5ZM869.8738 185.96875L869.8738 186.875L869.67065 186.875Q868.405 186.90625 867.655 187.64062Q866.905 188.35938 866.78 189.67188Q867.4675 188.90625 868.6238 188.90625Q869.73315 188.90625 870.405 189.6875Q871.0769 190.46875 871.0769 191.71875Q871.0769 193.03125 870.35815 193.82812Q869.6394 194.625 868.42065 194.625Q867.2019 194.625 866.4363 193.6875Q865.6863 192.73438 865.6863 191.25L865.6863 190.84375Q865.6863 188.48438 866.6863 187.23438Q867.6863 185.98438 869.67065 185.96875L869.8738 185.96875ZM868.4519 189.8125Q867.8894 189.8125 867.42065 190.14062Q866.9519 190.46875 866.7644 190.98438L866.7644 191.375Q866.7644 192.4375 867.23315 193.07812Q867.7175 193.71875 868.42065 193.71875Q869.155 193.71875 869.5769 193.1875Q869.9988 192.64062 869.9988 191.76562Q869.9988 190.89062 869.5769 190.35938Q869.155 189.8125 868.4519 189.8125ZM872.7488 193.9375Q872.7488 193.65625 872.905 193.46875Q873.0769 193.28125 873.405 193.28125Q873.7488 193.28125 873.92065 193.46875Q874.0925 193.65625 874.0925 193.9375Q874.0925 194.20312 873.92065 194.39062Q873.7488 194.5625 873.405 194.5625Q873.0769 194.5625 872.905 194.39062Q872.7488 194.20312 872.7488 193.9375ZM877.1863 189.70312L877.9988 189.70312Q878.78 189.6875 879.2175 189.29688Q879.655 188.90625 879.655 188.23438Q879.655 186.73438 878.155 186.73438Q877.4519 186.73438 877.03 187.14062Q876.6238 187.54688 876.6238 188.20312L875.53 188.20312Q875.53 187.1875 876.2644 186.51562Q877.0144 185.84375 878.155 185.84375Q879.35815 185.84375 880.04565 186.48438Q880.73315 187.125 880.73315 188.26562Q880.73315 188.82812 880.3738 189.34375Q880.0144 189.85938 879.3894 190.125Q880.0925 190.34375 880.4675 190.85938Q880.85815 191.375 880.85815 192.125Q880.85815 193.26562 880.10815 193.95312Q879.35815 194.625 878.155 194.625Q876.9675 194.625 876.2019 193.96875Q875.4519 193.3125 875.4519 192.25L876.54565 192.25Q876.54565 192.92188 876.98315 193.32812Q877.42065 193.73438 878.17065 193.73438Q878.9519 193.73438 879.35815 193.32812Q879.78 192.90625 879.78 192.14062Q879.78 191.40625 879.3269 191.01562Q878.8738 190.60938 877.9988 190.59375L877.1863 190.59375L877.1863 189.70312ZM887.9675 190.85938Q887.9675 192.76562 887.3113 193.70312Q886.67065 194.625 885.28 194.625Q883.92065 194.625 883.2644 193.71875Q882.60815 192.8125 882.5769 191.0L882.5769 189.5625Q882.5769 187.67188 883.2175 186.76562Q883.8738 185.84375 885.2644 185.84375Q886.6394 185.84375 887.29565 186.73438Q887.9519 187.60938 887.9675 189.45312L887.9675 190.85938ZM886.8738 189.375Q886.8738 188.0 886.48315 187.375Q886.10815 186.73438 885.2644 186.73438Q884.4363 186.73438 884.04565 187.375Q883.67065 188.0 883.67065 189.29688L883.67065 191.03125Q883.67065 192.40625 884.0613 193.07812Q884.4675 193.73438 885.28 193.73438Q886.0769 193.73438 886.4675 193.10938Q886.85815 192.48438 886.8738 191.15625L886.8738 189.375Z" fill-rule="nonzero"/><path fill="#000000" d="M21.900005 152.25833L13.306256 152.25833L13.306256 149.02396Q13.306256 148.03958 13.571881 147.44583Q13.837506 146.85208 14.384381 146.52396Q14.915631 146.1802 15.509381 146.1802Q16.056255 146.1802 16.54063 146.47708Q17.025005 146.77396 17.32188 147.38333Q17.556255 146.60208 18.118755 146.19583Q18.66563 145.77396 19.41563 145.77396Q20.00938 145.77396 20.54063 146.02396Q21.056255 146.27396 21.337505 146.64896Q21.618755 147.02396 21.75938 147.60208Q21.900005 148.16458 21.900005 148.97708L21.900005 152.25833ZM16.91563 151.1177L16.91563 149.25833Q16.91563 148.50833 16.82188 148.1802Q16.69688 147.7427 16.400005 147.52396Q16.087505 147.3052 15.634381 147.3052Q15.212506 147.3052 14.884381 147.50833Q14.556256 147.71146 14.446881 148.10208Q14.321881 148.47708 14.321881 149.39896L14.321881 151.1177L16.91563 151.1177ZM20.88438 151.1177L20.88438 148.97708Q20.88438 148.4302 20.837505 148.21146Q20.775005 147.8052 20.618755 147.5552Q20.44688 147.28958 20.13438 147.1177Q19.82188 146.94583 19.41563 146.94583Q18.931255 146.94583 18.57188 147.19583Q18.212505 147.4302 18.07188 147.8677Q17.931255 148.3052 17.931255 149.13333L17.931255 151.1177L20.88438 151.1177ZM21.13438 140.27396Q21.63438 140.8677 21.837505 141.41458Q22.04063 141.94583 22.04063 142.57083Q22.04063 143.60208 21.54063 144.14896Q21.04063 144.69583 20.25938 144.69583Q19.806255 144.69583 19.431255 144.4927Q19.04063 144.28958 18.82188 143.94583Q18.587505 143.60208 18.47813 143.1802Q18.38438 142.88333 18.306255 142.2427Q18.16563 140.97708 17.94688 140.3677Q17.72813 140.3677 17.681255 140.3677Q17.025005 140.3677 16.75938 140.66458Q16.41563 141.07083 16.41563 141.8677Q16.41563 142.60208 16.681255 142.96146Q16.931255 143.32083 17.587505 143.4927L17.44688 144.52396Q16.79063 144.38333 16.38438 144.0552Q15.978131 143.72708 15.759381 143.1177Q15.540631 142.50833 15.540631 141.71146Q15.540631 140.91458 15.728131 140.41458Q15.915631 139.91458 16.19688 139.6802Q16.47813 139.44583 16.91563 139.35208Q17.181255 139.3052 17.88438 139.3052L19.29063 139.3052Q20.75938 139.3052 21.150005 139.2427Q21.54063 139.16458 21.900005 138.96146L21.900005 140.07083Q21.57188 140.22708 21.13438 140.27396ZM18.775005 140.3677Q19.00938 140.94583 19.181255 142.08646Q19.275005 142.7427 19.400005 143.00833Q19.50938 143.27396 19.72813 143.4302Q19.94688 143.57083 20.22813 143.57083Q20.650005 143.57083 20.931255 143.25833Q21.212505 142.9302 21.212505 142.32083Q21.212505 141.71146 20.94688 141.2427Q20.681255 140.75833 20.212505 140.53958Q19.85313 140.3677 19.16563 140.3677L18.775005 140.3677ZM20.962505 135.03958L21.88438 134.88333Q21.97813 135.33646 21.97813 135.6802Q21.97813 136.25833 21.806255 136.57083Q21.618755 136.88333 21.32188 137.02396Q21.025005 137.14896 20.07188 137.14896L16.493755 137.14896L16.493755 137.91458L15.681256 137.91458L15.681256 137.14896L14.134381 137.14896L13.509381 136.10208L15.681256 136.10208L15.681256 135.03958L16.493755 135.03958L16.493755 136.10208L20.13438 136.10208Q20.587505 136.10208 20.712505 136.0552Q20.837505 135.9927 20.91563 135.8677Q20.993755 135.7427 20.993755 135.50833Q20.993755 135.32083 20.962505 135.03958ZM19.618755 130.27396L19.75938 129.2427Q20.82188 129.41458 21.431255 130.1177Q22.04063 130.82083 22.04063 131.83646Q22.04063 133.1177 21.212505 133.89896Q20.368755 134.66458 18.806255 134.66458Q17.806255 134.66458 17.056255 134.33646Q16.29063 133.9927 15.915631 133.32083Q15.540631 132.63333 15.540631 131.82083Q15.540631 130.82083 16.056255 130.1802Q16.556255 129.52396 17.50938 129.33646L17.66563 130.3677Q17.04063 130.50833 16.72813 130.88333Q16.400005 131.25833 16.400005 131.78958Q16.400005 132.58646 16.97813 133.08646Q17.54063 133.58646 18.775005 133.58646Q20.04063 133.58646 20.60313 133.10208Q21.16563 132.6177 21.16563 131.85208Q21.16563 131.22708 20.79063 130.82083Q20.41563 130.39896 19.618755 130.27396ZM21.900005 128.33646L13.306256 128.33646L13.306256 127.28958L16.38438 127.28958Q15.540631 126.55521 15.540631 125.43021Q15.540631 124.72708 15.821881 124.22708Q16.087505 123.71146 16.57188 123.49271Q17.04063 123.27396 17.962505 123.27396L21.900005 123.27396L21.900005 124.32083L17.962505 124.32083Q17.16563 124.32083 16.806255 124.66458Q16.44688 125.00833 16.44688 125.63333Q16.44688 126.10208 16.69688 126.52396Q16.931255 126.93021 17.35313 127.11771Q17.75938 127.28958 18.493755 127.28958L21.900005 127.28958L21.900005 128.33646ZM19.13438 118.58646L19.04063 117.52396Q19.69688 117.44583 20.10313 117.16458Q20.50938 116.88333 20.775005 116.30521Q21.025005 115.71146 21.025005 114.97708Q21.025005 114.33646 20.837505 113.83646Q20.63438 113.33646 20.306255 113.10208Q19.962505 112.85208 19.57188 112.85208Q19.16563 112.85208 18.868755 113.08646Q18.556255 113.32083 18.35313 113.85208Q18.212505 114.21146 17.931255 115.39896Q17.650005 116.57083 17.400005 117.03958Q17.07188 117.66458 16.60313 117.96146Q16.118755 118.25833 15.525006 118.25833Q14.884381 118.25833 14.321881 117.89896Q13.743756 117.52396 13.462506 116.82083Q13.165631 116.10208 13.165631 115.24271Q13.165631 114.28958 13.478131 113.55521Q13.775006 112.82083 14.384381 112.43021Q14.978131 112.03958 15.728131 112.00833L15.806256 113.10208Q14.993756 113.19583 14.587506 113.71146Q14.165631 114.21146 14.165631 115.19583Q14.165631 116.22708 14.540631 116.69583Q14.915631 117.16458 15.446881 117.16458Q15.915631 117.16458 16.212505 116.83646Q16.50938 116.50833 16.82188 115.13333Q17.13438 113.74271 17.368755 113.22708Q17.72813 112.47708 18.25938 112.11771Q18.775005 111.75833 19.47813 111.75833Q20.16563 111.75833 20.775005 112.14896Q21.368755 112.53958 21.712505 113.27396Q22.04063 114.00833 22.04063 114.93021Q22.04063 116.10208 21.712505 116.89896Q21.368755 117.68021 20.681255 118.13333Q19.993755 118.57083 19.13438 118.58646ZM14.525006 110.33646L13.306256 110.33646L13.306256 109.27396L14.525006 109.27396L14.525006 110.33646ZM21.900005 110.33646L15.681256 110.33646L15.681256 109.27396L21.900005 109.27396L21.900005 110.33646ZM21.900005 107.89896L21.04063 107.89896L16.493755 103.93021Q16.525005 104.61771 16.525005 105.13333L16.525005 107.66458L15.681256 107.66458L15.681256 102.57083L16.368755 102.57083L20.32188 105.94583L21.04063 106.60208Q20.993755 105.88333 20.993755 105.27396L20.993755 102.38333L21.900005 102.38333L21.900005 107.89896ZM19.900005 98.08646L20.025005 96.99271Q20.97813 97.24271 21.50938 97.94583Q22.04063 98.64896 22.04063 99.72708Q22.04063 101.08646 21.19688 101.89896Q20.35313 102.69583 18.837505 102.69583Q17.275005 102.69583 16.41563 101.88333Q15.540631 101.07083 15.540631 99.78958Q15.540631 98.53958 16.38438 97.75833Q17.22813 96.96146 18.775005 96.96146Q18.868755 96.96146 19.056255 96.96146L19.056255 101.60208Q20.087505 101.53958 20.63438 101.02396Q21.16563 100.50833 21.16563 99.72708Q21.16563 99.14896 20.868755 98.74271Q20.556255 98.32083 19.900005 98.08646ZM18.19688 101.53958L18.19688 98.07083Q17.400005 98.13333 17.00938 98.46146Q16.400005 98.97708 16.400005 99.77396Q16.400005 100.50833 16.88438 101.00833Q17.368755 101.49271 18.19688 101.53958Z" fill-rule="nonzero"/><path fill="#000000" d="M61.36875 63.69895L60.321877 63.69895L60.321877 56.9802Q59.93125 57.339577 59.30625 57.714577Q58.696877 58.07395 58.2125 58.245827L58.2125 57.2302Q59.0875 56.808327 59.74375 56.2302Q60.415627 55.63645 60.696877 55.07395L61.36875 55.07395L61.36875 63.69895Z" fill-rule="nonzero"/><path fill="#000000" d="M62.946877 88.65708L62.946877 89.67271L57.259377 89.67271Q57.259377 89.29771 57.384377 88.93833Q57.603127 88.36021 58.071877 87.79771Q58.55625 87.23521 59.4625 86.50083Q60.86875 85.34458 61.353127 84.67271Q61.853127 84.00083 61.853127 83.40708Q61.853127 82.78208 61.4 82.36021Q60.946877 81.92271 60.228127 81.92271Q59.4625 81.92271 59.009377 82.37583Q58.55625 82.82896 58.540627 83.64146L57.4625 83.53208Q57.571877 82.31333 58.290627 81.68833Q59.025 81.04771 60.259377 81.04771Q61.49375 81.04771 62.2125 81.73521Q62.93125 82.42271 62.93125 83.43833Q62.93125 83.95396 62.7125 84.45396Q62.509377 84.93833 62.009377 85.50083Q61.525 86.04771 60.4 87.00083Q59.446877 87.79771 59.165627 88.09458Q58.9 88.37583 58.728127 88.65708L62.946877 88.65708Z" fill-rule="nonzero"/><path fill="#000000" d="M60.775 115.646454L60.775 113.583954L57.05625 113.583954L57.05625 112.615204L60.978127 107.052704L61.8375 107.052704L61.8375 112.615204L62.99375 112.615204L62.99375 113.583954L61.8375 113.583954L61.8375 115.646454L60.775 115.646454ZM60.775 112.615204L60.775 108.75583L58.0875 112.615204L60.775 112.615204Z" fill-rule="nonzero"/><path fill="#000000" d="M59.025 136.96396Q58.36875 136.71396 58.040627 136.27646Q57.728127 135.82333 57.728127 135.21396Q57.728127 134.27646 58.4 133.63583Q59.0875 132.99521 60.196877 132.99521Q61.321877 132.99521 62.009377 133.65146Q62.696877 134.30771 62.696877 135.24521Q62.696877 135.83896 62.384377 136.27646Q62.071877 136.71396 61.43125 136.96396Q62.228127 137.21396 62.634377 137.79208Q63.040627 138.37021 63.040627 139.16708Q63.040627 140.26083 62.259377 141.01083Q61.49375 141.76083 60.2125 141.76083Q58.946877 141.76083 58.165627 141.01083Q57.384377 140.26083 57.384377 139.13583Q57.384377 138.29208 57.80625 137.72958Q58.24375 137.16708 59.025 136.96396ZM58.80625 135.16708Q58.80625 135.77646 59.196877 136.16708Q59.603127 136.55771 60.228127 136.55771Q60.8375 136.55771 61.228127 136.18271Q61.61875 135.79208 61.61875 135.22958Q61.61875 134.65146 61.2125 134.26083Q60.80625 133.85458 60.2125 133.85458Q59.603127 133.85458 59.196877 134.24521Q58.80625 134.63583 58.80625 135.16708ZM58.478127 139.13583Q58.478127 139.58896 58.68125 140.01083Q58.9 140.43271 59.321877 140.66708Q59.74375 140.90146 60.228127 140.90146Q60.978127 140.90146 61.4625 140.41708Q61.9625 139.93271 61.9625 139.18271Q61.9625 138.41708 61.4625 137.91708Q60.9625 137.41708 60.196877 137.41708Q59.446877 137.41708 58.9625 137.91708Q58.478127 138.40146 58.478127 139.13583Z" fill-rule="nonzero"/><path fill="#000000" d="M54.36875 167.59396L53.321877 167.59396L53.321877 160.87521Q52.93125 161.23459 52.30625 161.60959Q51.696877 161.96896 51.2125 162.14084L51.2125 161.12521Q52.0875 160.70334 52.74375 160.12521Q53.415627 159.53146 53.696877 158.96896L54.36875 158.96896L54.36875 167.59396ZM62.86875 161.10959L61.821877 161.18771Q61.68125 160.56271 61.43125 160.28146Q60.99375 159.82834 60.36875 159.82834Q59.86875 159.82834 59.478127 160.10959Q58.99375 160.48459 58.696877 161.18771Q58.415627 161.87521 58.4 163.15646Q58.775 162.57834 59.321877 162.29709Q59.884377 162.01584 60.49375 162.01584Q61.540627 162.01584 62.275 162.79709Q63.025 163.57834 63.025 164.79709Q63.025 165.60959 62.665627 166.31271Q62.321877 167.00021 61.7125 167.37521Q61.103127 167.73459 60.3375 167.73459Q59.009377 167.73459 58.18125 166.76584Q57.353127 165.79709 57.353127 163.57834Q57.353127 161.07834 58.275 159.95334Q59.071877 158.96896 60.43125 158.96896Q61.446877 158.96896 62.0875 159.54709Q62.74375 160.10959 62.86875 161.10959ZM58.571877 164.81271Q58.571877 165.35959 58.790627 165.85959Q59.025 166.34396 59.43125 166.60959Q59.853127 166.87521 60.321877 166.87521Q60.978127 166.87521 61.4625 166.34396Q61.946877 165.79709 61.946877 164.87521Q61.946877 163.98459 61.4625 163.46896Q60.99375 162.95334 60.275 162.95334Q59.55625 162.95334 59.05625 163.46896Q58.571877 163.98459 58.571877 164.81271Z" fill-rule="nonzero"/><path fill="#000000" d="M55.946877 192.5521L55.946877 193.56772L50.259377 193.56772Q50.259377 193.19272 50.384377 192.83334Q50.603127 192.25522 51.071877 191.69272Q51.55625 191.13022 52.4625 190.39584Q53.86875 189.2396 54.353127 188.56772Q54.853127 187.89584 54.853127 187.3021Q54.853127 186.6771 54.4 186.25522Q53.946877 185.81772 53.228127 185.81772Q52.4625 185.81772 52.009377 186.27084Q51.55625 186.72397 51.540627 187.53647L50.4625 187.4271Q50.571877 186.20834 51.290627 185.58334Q52.025 184.94272 53.259377 184.94272Q54.49375 184.94272 55.2125 185.63022Q55.93125 186.31772 55.93125 187.33334Q55.93125 187.84897 55.7125 188.34897Q55.509377 188.83334 55.009377 189.39584Q54.525 189.94272 53.4 190.89584Q52.446877 191.69272 52.165627 191.9896Q51.9 192.27084 51.728127 192.5521L55.946877 192.5521ZM59.025 188.91147Q58.36875 188.66147 58.040627 188.22397Q57.728127 187.77084 57.728127 187.16147Q57.728127 186.22397 58.4 185.58334Q59.0875 184.94272 60.196877 184.94272Q61.321877 184.94272 62.009377 185.59897Q62.696877 186.25522 62.696877 187.19272Q62.696877 187.78647 62.384377 188.22397Q62.071877 188.66147 61.43125 188.91147Q62.228127 189.16147 62.634377 189.7396Q63.040627 190.31772 63.040627 191.1146Q63.040627 192.20834 62.259377 192.95834Q61.49375 193.70834 60.2125 193.70834Q58.946877 193.70834 58.165627 192.95834Q57.384377 192.20834 57.384377 191.08334Q57.384377 190.2396 57.80625 189.6771Q58.24375 189.1146 59.025 188.91147ZM58.80625 187.1146Q58.80625 187.72397 59.196877 188.1146Q59.603127 188.50522 60.228127 188.50522Q60.8375 188.50522 61.228127 188.13022Q61.61875 187.7396 61.61875 187.1771Q61.61875 186.59897 61.2125 186.20834Q60.80625 185.8021 60.2125 185.8021Q59.603127 185.8021 59.196877 186.19272Q58.80625 186.58334 58.80625 187.1146ZM58.478127 191.08334Q58.478127 191.53647 58.68125 191.95834Q58.9 192.38022 59.321877 192.6146Q59.74375 192.84897 60.228127 192.84897Q60.978127 192.84897 61.4625 192.3646Q61.9625 191.88022 61.9625 191.13022Q61.9625 190.3646 61.4625 189.8646Q60.9625 189.3646 60.196877 189.3646Q59.446877 189.3646 58.9625 189.8646Q58.478127 190.34897 58.478127 191.08334Z" fill-rule="nonzero"/><path fill="#000000" d="M12.36875 15.5875L18.0875 15.5875Q19.790625 15.5875 20.61875 15.728125Q21.4625 15.86875 22.11875 16.321875Q22.775 16.759375 23.2125 17.509375Q23.65 18.259375 23.65 19.18125Q23.65 20.196875 23.103125 21.040625Q22.571875 21.86875 21.65 22.290625Q22.946875 22.665625 23.65 23.5875Q24.353125 24.509375 24.353125 25.74375Q24.353125 26.728125 23.9 27.65Q23.446875 28.571875 22.665625 29.134375Q21.884375 29.68125 20.728125 29.80625Q20.009375 29.884375 17.24375 29.9L12.36875 29.9L12.36875 15.5875ZM15.259375 17.9625L15.259375 21.275L17.15 21.275Q18.8375 21.275 19.24375 21.228125Q19.99375 21.134375 20.415625 20.7125Q20.8375 20.290625 20.8375 19.603125Q20.8375 18.93125 20.4625 18.525Q20.103125 18.103125 19.384375 18.009375Q18.9625 17.9625 16.915625 17.9625L15.259375 17.9625ZM15.259375 23.665625L15.259375 27.49375L17.93125 27.49375Q19.49375 27.49375 19.915625 27.4Q20.55625 27.275 20.9625 26.821875Q21.36875 26.36875 21.36875 25.61875Q21.36875 24.9625 21.05625 24.525Q20.74375 24.071875 20.15 23.86875Q19.55625 23.665625 17.5875 23.665625L15.259375 23.665625ZM28.384375 22.696875L25.9 22.24375Q26.321875 20.74375 27.3375 20.025Q28.36875 19.290625 30.384375 19.290625Q32.228127 19.290625 33.11875 19.728125Q34.025 20.165625 34.384377 20.8375Q34.759377 21.49375 34.759377 23.290625L34.728127 26.49375Q34.728127 27.853125 34.853127 28.509375Q34.99375 29.15 35.353127 29.9L32.634377 29.9Q32.525 29.61875 32.36875 29.0875Q32.30625 28.8375 32.275 28.759375Q31.571875 29.446875 30.759375 29.790625Q29.9625 30.134375 29.05625 30.134375Q27.4625 30.134375 26.540625 29.275Q25.61875 28.4 25.61875 27.071875Q25.61875 26.18125 26.025 25.49375Q26.446875 24.80625 27.196875 24.446875Q27.9625 24.071875 29.4 23.80625Q31.321875 23.446875 32.05625 23.134375L32.05625 22.853125Q32.05625 22.071875 31.665625 21.74375Q31.275 21.4 30.196875 21.4Q29.4625 21.4 29.040625 21.68125Q28.634375 21.9625 28.384375 22.696875ZM32.05625 24.915625Q31.525 25.0875 30.384375 25.3375Q29.24375 25.5875 28.9 25.821875Q28.353125 26.196875 28.353125 26.790625Q28.353125 27.353125 28.775 27.775Q29.2125 28.196875 29.884375 28.196875Q30.61875 28.196875 31.290625 27.7125Q31.790625 27.3375 31.946875 26.80625Q32.05625 26.446875 32.05625 25.4625L32.05625 24.915625ZM42.0875 19.525L42.0875 21.7125L40.2125 21.7125L40.2125 25.9Q40.2125 27.165625 40.259377 27.384375Q40.321877 27.5875 40.509377 27.728125Q40.7125 27.853125 40.978127 27.853125Q41.353127 27.853125 42.0875 27.5875L42.321877 29.728125Q41.353127 30.134375 40.15 30.134375Q39.4 30.134375 38.80625 29.884375Q38.2125 29.634375 37.93125 29.24375Q37.665627 28.8375 37.55625 28.165625Q37.4625 27.696875 37.4625 26.24375L37.4625 21.7125L36.196877 21.7125L36.196877 19.525L37.4625 19.525L37.4625 17.4625L40.2125 15.86875L40.2125 19.525L42.0875 19.525ZM53.384377 22.5875L50.68125 23.0875Q50.540627 22.275 50.05625 21.86875Q49.571877 21.446875 48.80625 21.446875Q47.775 21.446875 47.165627 22.165625Q46.55625 22.86875 46.55625 24.525Q46.55625 26.36875 47.165627 27.134375Q47.790627 27.9 48.8375 27.9Q49.61875 27.9 50.11875 27.4625Q50.61875 27.009375 50.821877 25.93125L53.509377 26.384375Q53.103127 28.24375 51.9 29.196875Q50.7125 30.134375 48.7125 30.134375Q46.43125 30.134375 45.071877 28.696875Q43.728127 27.259375 43.728127 24.728125Q43.728127 22.15 45.0875 20.728125Q46.446877 19.290625 48.759377 19.290625Q50.65 19.290625 51.759377 20.11875Q52.884377 20.93125 53.384377 22.5875ZM58.071877 15.5875L58.071877 20.853125Q59.4 19.290625 61.24375 19.290625Q62.196877 19.290625 62.946877 19.65Q63.7125 19.99375 64.10313 20.540625Q64.49375 21.0875 64.63438 21.759375Q64.775 22.415625 64.775 23.821875L64.775 29.9L62.025 29.9L62.025 24.415625Q62.025 22.790625 61.86875 22.353125Q61.7125 21.915625 61.30625 21.665625Q60.915627 21.4 60.321877 21.4Q59.65 21.4 59.103127 21.728125Q58.571877 22.05625 58.321877 22.728125Q58.071877 23.4 58.071877 24.696875L58.071877 29.9L55.321877 29.9L55.321877 15.5875L58.071877 15.5875ZM72.61875 25.24375L75.43125 24.9625Q75.69688 26.384375 76.4625 27.05625Q77.24375 27.7125 78.55625 27.7125Q79.9625 27.7125 80.66563 27.11875Q81.36875 26.525 81.36875 25.74375Q81.36875 25.228125 81.07188 24.884375Q80.775 24.525 80.04063 24.259375Q79.525 24.071875 77.72813 23.634375Q75.4 23.05625 74.4625 22.2125Q73.13438 21.025 73.13438 19.3375Q73.13438 18.24375 73.75938 17.290625Q74.38438 16.3375 75.54063 15.8375Q76.7125 15.3375 78.36875 15.3375Q81.05625 15.3375 82.41563 16.525Q83.79063 17.696875 83.85313 19.68125L80.9625 19.80625Q80.775 18.696875 80.16563 18.2125Q79.55625 17.728125 78.3375 17.728125Q77.07188 17.728125 76.36875 18.24375Q75.9 18.5875 75.9 19.134375Q75.9 19.65 76.3375 20.009375Q76.88438 20.4625 78.99375 20.9625Q81.10313 21.4625 82.10313 21.99375Q83.11875 22.525 83.68125 23.446875Q84.25938 24.36875 84.25938 25.728125Q84.25938 26.9625 83.57188 28.040625Q82.9 29.103125 81.65 29.634375Q80.4 30.15 78.525 30.15Q75.82188 30.15 74.35313 28.9Q72.9 27.65 72.61875 25.24375ZM86.3375 18.11875L86.3375 15.5875L89.0875 15.5875L89.0875 18.11875L86.3375 18.11875ZM86.3375 29.9L86.3375 19.525L89.0875 19.525L89.0875 29.9L86.3375 29.9ZM90.22813 29.9L90.22813 27.759375L94.11875 23.290625Q95.07188 22.196875 95.54063 21.74375Q95.05625 21.775 94.275 21.790625L90.61875 21.80625L90.61875 19.525L99.18125 19.525L99.18125 21.478125L95.22813 26.040625L93.82188 27.55625Q94.9625 27.49375 95.24375 27.49375L99.49375 27.49375L99.49375 29.9L90.22813 29.9ZM107.3375 26.603125L110.07188 27.05625Q109.55625 28.55625 108.41563 29.353125Q107.275 30.134375 105.57188 30.134375Q102.85313 30.134375 101.55625 28.36875Q100.54063 26.946875 100.54063 24.790625Q100.54063 22.2125 101.88438 20.759375Q103.22813 19.290625 105.29063 19.290625Q107.60313 19.290625 108.93125 20.821875Q110.275 22.353125 110.22813 25.509375L103.35313 25.509375Q103.38438 26.728125 104.00938 27.415625Q104.65 28.0875 105.5875 28.0875Q106.24375 28.0875 106.68125 27.74375Q107.11875 27.384375 107.3375 26.603125ZM107.49375 23.821875Q107.4625 22.634375 106.86875 22.025Q106.29063 21.4 105.4625 21.4Q104.55625 21.4 103.97813 22.040625Q103.38438 22.696875 103.4 23.821875L107.49375 23.821875ZM121.18125 29.9L117.00938 19.525L119.88438 19.525L121.8375 24.821875L122.41563 26.5875Q122.63438 25.915625 122.69688 25.696875Q122.82188 25.259375 122.97813 24.821875L124.9625 19.525L127.775 19.525L123.66563 29.9L121.18125 29.9ZM129.3375 29.9L129.3375 27.15L132.0875 27.15L132.0875 29.9L129.3375 29.9ZM134.36874 26.946875L137.11874 26.525Q137.30624 27.321875 137.8375 27.74375Q138.36874 28.15 139.3375 28.15Q140.4 28.15 140.94687 27.759375Q141.30624 27.49375 141.30624 27.025Q141.30624 26.7125 141.10312 26.509375Q140.9 26.321875 140.19687 26.15Q136.86874 25.415625 135.97812 24.80625Q134.74374 23.978125 134.74374 22.478125Q134.74374 21.134375 135.80624 20.2125Q136.88437 19.290625 139.11874 19.290625Q141.24374 19.290625 142.275 19.99375Q143.32187 20.68125 143.7125 22.040625L141.11874 22.509375Q140.94687 21.915625 140.47812 21.5875Q140.025 21.259375 139.16562 21.259375Q138.0875 21.259375 137.61874 21.571875Q137.30624 21.790625 137.30624 22.11875Q137.30624 22.415625 137.57187 22.61875Q137.94687 22.9 140.13437 23.4Q142.32187 23.9 143.19687 24.61875Q144.05624 25.353125 144.05624 26.65Q144.05624 28.0875 142.86874 29.11875Q141.68124 30.134375 139.3375 30.134375Q137.22812 30.134375 135.97812 29.275Q134.74374 28.415625 134.36874 26.946875ZM146.3375 29.9L146.3375 27.15L149.0875 27.15L149.0875 29.9L146.3375 29.9ZM161.57187 29.9L161.57187 18.009375L157.3375 18.009375L157.3375 15.5875L168.7125 15.5875L168.7125 18.009375L164.4625 18.009375L164.4625 29.9L161.57187 29.9ZM174.07187 15.5875L174.07187 20.853125Q175.4 19.290625 177.24374 19.290625Q178.19687 19.290625 178.94687 19.65Q179.7125 19.99375 180.10312 20.540625Q180.49374 21.0875 180.63437 21.759375Q180.775 22.415625 180.775 23.821875L180.775 29.9L178.025 29.9L178.025 24.415625Q178.025 22.790625 177.86874 22.353125Q177.7125 21.915625 177.30624 21.665625Q176.91562 21.4 176.32187 21.4Q175.65 21.4 175.10312 21.728125Q174.57187 22.05625 174.32187 22.728125Q174.07187 23.4 174.07187 24.696875L174.07187 29.9L171.32187 29.9L171.32187 15.5875L174.07187 15.5875ZM185.9625 29.9L183.2125 29.9L183.2125 19.525L185.775 19.525L185.775 21.009375Q186.41562 19.9625 186.93124 19.634375Q187.4625 19.290625 188.13437 19.290625Q189.07187 19.290625 189.93124 19.80625L189.0875 22.196875Q188.4 21.759375 187.80624 21.759375Q187.22812 21.759375 186.82187 22.071875Q186.41562 22.384375 186.18124 23.228125Q185.9625 24.05625 185.9625 26.696875L185.9625 29.9ZM190.69687 24.571875Q190.69687 23.196875 191.36874 21.915625Q192.05624 20.634375 193.29062 19.9625Q194.525 19.290625 196.04062 19.290625Q198.4 19.290625 199.9 20.821875Q201.4 22.353125 201.4 24.68125Q201.4 27.040625 199.88437 28.5875Q198.36874 30.134375 196.05624 30.134375Q194.63437 30.134375 193.3375 29.49375Q192.05624 28.8375 191.36874 27.603125Q190.69687 26.353125 190.69687 24.571875ZM193.50937 24.7125Q193.50937 26.259375 194.24374 27.0875Q194.97812 27.9 196.05624 27.9Q197.13437 27.9 197.85312 27.0875Q198.5875 26.259375 198.5875 24.696875Q198.5875 23.165625 197.85312 22.353125Q197.13437 21.525 196.05624 21.525Q194.97812 21.525 194.24374 22.353125Q193.50937 23.165625 193.50937 24.7125ZM210.16562 29.9L210.16562 28.353125Q209.60312 29.18125 208.66562 29.665625Q207.74374 30.134375 206.72812 30.134375Q205.68124 30.134375 204.85312 29.68125Q204.025 29.2125 203.65 28.384375Q203.275 27.55625 203.275 26.0875L203.275 19.525L206.025 19.525L206.025 24.290625Q206.025 26.478125 206.16562 26.978125Q206.32187 27.4625 206.7125 27.759375Q207.11874 28.040625 207.74374 28.040625Q208.44687 28.040625 208.99374 27.665625Q209.55624 27.275 209.75937 26.7125Q209.9625 26.134375 209.9625 23.9L209.9625 19.525L212.7125 19.525L212.7125 29.9L210.16562 29.9ZM215.0875 30.5875L218.2125 30.9625Q218.29062 31.509375 218.57187 31.7125Q218.9625 32.009377 219.80624 32.009377Q220.88437 32.009377 221.41562 31.68125Q221.775 31.478125 221.9625 30.99375Q222.0875 30.65 222.0875 29.728125L222.0875 28.2125Q220.86874 29.9 218.99374 29.9Q216.9 29.9 215.68124 28.134375Q214.72812 26.728125 214.72812 24.65Q214.72812 22.040625 215.97812 20.665625Q217.22812 19.290625 219.10312 19.290625Q221.025 19.290625 222.275 20.978125L222.275 19.525L224.8375 19.525L224.8375 28.8375Q224.8375 30.665625 224.525 31.571875Q224.22812 32.49375 223.68124 33.009377Q223.13437 33.525 222.2125 33.80625Q221.30624 34.103127 219.91562 34.103127Q217.275 34.103127 216.16562 33.196877Q215.07187 32.30625 215.07187 30.915625Q215.07187 30.775 215.0875 30.5875ZM217.54062 24.49375Q217.54062 26.15 218.16562 26.915625Q218.80624 27.68125 219.74374 27.68125Q220.75937 27.68125 221.44687 26.9Q222.15 26.103125 222.15 24.571875Q222.15 22.9625 221.47812 22.18125Q220.82187 21.4 219.80624 21.4Q218.80624 21.4 218.16562 22.165625Q217.54062 22.93125 217.54062 24.49375ZM230.07187 15.5875L230.07187 20.853125Q231.4 19.290625 233.24374 19.290625Q234.19687 19.290625 234.94687 19.65Q235.7125 19.99375 236.10312 20.540625Q236.49374 21.0875 236.63437 21.759375Q236.775 22.415625 236.775 23.821875L236.775 29.9L234.025 29.9L234.025 24.415625Q234.025 22.790625 233.86874 22.353125Q233.7125 21.915625 233.30624 21.665625Q232.91562 21.4 232.32187 21.4Q231.65 21.4 231.10312 21.728125Q230.57187 22.05625 230.32187 22.728125Q230.07187 23.4 230.07187 24.696875L230.07187 29.9L227.32187 29.9L227.32187 15.5875L230.07187 15.5875ZM239.25937 19.525L241.82187 19.525L241.82187 21.05625Q242.32187 20.275 243.16562 19.790625Q244.00937 19.290625 245.05624 19.290625Q246.85312 19.290625 248.10312 20.7125Q249.36874 22.11875 249.36874 24.65Q249.36874 27.259375 248.10312 28.696875Q246.8375 30.134375 245.025 30.134375Q244.16562 30.134375 243.4625 29.790625Q242.775 29.446875 242.00937 28.61875L242.00937 33.853127L239.25937 33.853127L239.25937 19.525ZM241.97812 24.540625Q241.97812 26.290625 242.66562 27.134375Q243.35312 27.9625 244.35312 27.9625Q245.30624 27.9625 245.94687 27.196875Q246.5875 26.415625 246.5875 24.68125Q246.5875 23.040625 245.93124 22.259375Q245.275 21.4625 244.30624 21.4625Q243.30624 21.4625 242.63437 22.24375Q241.97812 23.009375 241.97812 24.540625ZM258.16562 29.9L258.16562 28.353125Q257.60312 29.18125 256.66562 29.665625Q255.74374 30.134375 254.72812 30.134375Q253.68124 30.134375 252.85312 29.68125Q252.025 29.2125 251.65 28.384375Q251.275 27.55625 251.275 26.0875L251.275 19.525L254.025 19.525L254.025 24.290625Q254.025 26.478125 254.16562 26.978125Q254.32187 27.4625 254.7125 27.759375Q255.11874 28.040625 255.74374 28.040625Q256.44687 28.040625 256.99374 27.665625Q257.55624 27.275 257.75937 26.7125Q257.9625 26.134375 257.9625 23.9L257.9625 19.525L260.7125 19.525L260.7125 29.9L258.16562 29.9ZM268.0875 19.525L268.0875 21.7125L266.2125 21.7125L266.2125 25.9Q266.2125 27.165625 266.25937 27.384375Q266.32187 27.5875 266.50937 27.728125Q266.7125 27.853125 266.97812 27.853125Q267.35312 27.853125 268.0875 27.5875L268.32187 29.728125Q267.35312 30.134375 266.15 30.134375Q265.4 30.134375 264.80624 29.884375Q264.2125 29.634375 263.93124 29.24375Q263.66562 28.8375 263.55624 28.165625Q263.4625 27.696875 263.4625 26.24375L263.4625 21.7125L262.19687 21.7125L262.19687 19.525L263.4625 19.525L263.4625 17.4625L266.2125 15.86875L266.2125 19.525L268.0875 19.525ZM280.88437 34.103127L279.00937 34.103127Q277.50937 31.853125 276.72812 29.43125Q275.94687 26.99375 275.94687 24.7125Q275.94687 21.884375 276.91562 19.36875Q277.75937 17.18125 279.04062 15.3375L280.91562 15.3375Q279.57187 18.290625 279.07187 20.36875Q278.57187 22.446875 278.57187 24.775Q278.57187 26.36875 278.86874 28.05625Q279.16562 29.728125 279.68124 31.24375Q280.025 32.24375 280.88437 34.103127ZM296.25937 29.9L293.11874 29.9L291.86874 26.65L286.15 26.65L284.9625 29.9L281.9 29.9L287.47812 15.5875L290.54062 15.5875L296.25937 29.9ZM290.94687 24.228125L288.97812 18.915625L287.04062 24.228125L290.94687 24.228125ZM302.775 29.9L300.025 29.9L300.025 19.55625Q298.525 20.9625 296.47812 21.634375L296.47812 19.15Q297.55624 18.790625 298.80624 17.821875Q300.07187 16.8375 300.54062 15.525L302.775 15.525L302.775 29.9ZM311.38437 15.525Q313.4625 15.525 314.63437 17.009375Q316.04062 18.759375 316.04062 22.8375Q316.04062 26.9 314.63437 28.68125Q313.4625 30.15 311.38437 30.15Q309.30624 30.15 308.025 28.540625Q306.74374 26.93125 306.74374 22.80625Q306.74374 18.759375 308.15 16.99375Q309.30624 15.525 311.38437 15.525ZM311.38437 17.80625Q310.88437 17.80625 310.49374 18.11875Q310.10312 18.43125 309.9 19.259375Q309.61874 20.321875 309.61874 22.8375Q309.61874 25.353125 309.86874 26.30625Q310.11874 27.24375 310.49374 27.55625Q310.88437 27.86875 311.38437 27.86875Q311.88437 27.86875 312.275 27.55625Q312.66562 27.228125 312.88437 26.415625Q313.16562 25.353125 313.16562 22.8375Q313.16562 20.321875 312.91562 19.384375Q312.66562 18.43125 312.275 18.11875Q311.88437 17.80625 311.38437 17.80625ZM322.38437 15.525Q324.4625 15.525 325.63437 17.009375Q327.04062 18.759375 327.04062 22.8375Q327.04062 26.9 325.63437 28.68125Q324.4625 30.15 322.38437 30.15Q320.30624 30.15 319.025 28.540625Q317.74374 26.93125 317.74374 22.80625Q317.74374 18.759375 319.15 16.99375Q320.30624 15.525 322.38437 15.525ZM322.38437 17.80625Q321.88437 17.80625 321.49374 18.11875Q321.10312 18.43125 320.9 19.259375Q320.61874 20.321875 320.61874 22.8375Q320.61874 25.353125 320.86874 26.30625Q321.11874 27.24375 321.49374 27.55625Q321.88437 27.86875 322.38437 27.86875Q322.88437 27.86875 323.275 27.55625Q323.66562 27.228125 323.88437 26.415625Q324.16562 25.353125 324.16562 22.8375Q324.16562 20.321875 323.91562 19.384375Q323.66562 18.43125 323.275 18.11875Q322.88437 17.80625 322.38437 17.80625ZM329.025 26.0875L329.025 23.3375L334.41562 23.3375L334.41562 26.0875L329.025 26.0875ZM337.10312 22.18125Q336.04062 21.728125 335.55624 20.946875Q335.07187 20.15 335.07187 19.2125Q335.07187 17.61875 336.18124 16.571875Q337.30624 15.525 339.36874 15.525Q341.41562 15.525 342.54062 16.571875Q343.66562 17.61875 343.66562 19.2125Q343.66562 20.2125 343.15 20.99375Q342.63437 21.759375 341.69687 22.18125Q342.88437 22.65 343.49374 23.571875Q344.11874 24.49375 344.11874 25.696875Q344.11874 27.665625 342.85312 28.915625Q341.60312 30.15 339.49374 30.15Q337.54062 30.15 336.24374 29.134375Q334.7125 27.915625 334.7125 25.80625Q334.7125 24.65 335.29062 23.68125Q335.86874 22.696875 337.10312 22.18125ZM337.66562 19.415625Q337.66562 20.228125 338.13437 20.696875Q338.60312 21.15 339.36874 21.15Q340.15 21.15 340.61874 20.696875Q341.0875 20.228125 341.0875 19.4Q341.0875 18.634375 340.61874 18.165625Q340.16562 17.696875 339.4 17.696875Q338.60312 17.696875 338.13437 18.165625Q337.66562 18.634375 337.66562 19.415625ZM337.41562 25.540625Q337.41562 26.68125 337.99374 27.321875Q338.57187 27.946875 339.44687 27.946875Q340.29062 27.946875 340.85312 27.3375Q341.41562 26.728125 341.41562 25.571875Q341.41562 24.571875 340.8375 23.9625Q340.275 23.353125 339.41562 23.353125Q338.4 23.353125 337.9 24.040625Q337.41562 24.728125 337.41562 25.540625ZM350.38437 15.525Q352.4625 15.525 353.63437 17.009375Q355.04062 18.759375 355.04062 22.8375Q355.04062 26.9 353.63437 28.68125Q352.4625 30.15 350.38437 30.15Q348.30624 30.15 347.025 28.540625Q345.74374 26.93125 345.74374 22.80625Q345.74374 18.759375 347.15 16.99375Q348.30624 15.525 350.38437 15.525ZM350.38437 17.80625Q349.88437 17.80625 349.49374 18.11875Q349.10312 18.43125 348.9 19.259375Q348.61874 20.321875 348.61874 22.8375Q348.61874 25.353125 348.86874 26.30625Q349.11874 27.24375 349.49374 27.55625Q349.88437 27.86875 350.38437 27.86875Q350.88437 27.86875 351.275 27.55625Q351.66562 27.228125 351.88437 26.415625Q352.16562 25.353125 352.16562 22.8375Q352.16562 20.321875 351.91562 19.384375Q351.66562 18.43125 351.275 18.11875Q350.88437 17.80625 350.38437 17.80625ZM364.00937 24.634375L364.00937 22.228125L370.24374 22.228125L370.24374 27.93125Q369.3375 28.80625 367.60312 29.478125Q365.88437 30.15 364.11874 30.15Q361.88437 30.15 360.2125 29.2125Q358.54062 28.259375 357.69687 26.509375Q356.85312 24.759375 356.85312 22.696875Q356.85312 20.4625 357.79062 18.728125Q358.72812 16.978125 360.54062 16.05625Q361.91562 15.3375 363.9625 15.3375Q366.63437 15.3375 368.13437 16.4625Q369.63437 17.571875 370.05624 19.540625L367.19687 20.0875Q366.88437 19.025 366.04062 18.415625Q365.2125 17.80625 363.9625 17.80625Q362.07187 17.80625 360.94687 19.009375Q359.8375 20.2125 359.8375 22.571875Q359.8375 25.11875 360.9625 26.4Q362.10312 27.665625 363.93124 27.665625Q364.85312 27.665625 365.75937 27.321875Q366.66562 26.9625 367.32187 26.446875L367.32187 24.634375L364.00937 24.634375ZM373.36874 15.5875L379.0875 15.5875Q380.79062 15.5875 381.61874 15.728125Q382.4625 15.86875 383.11874 16.321875Q383.775 16.759375 384.2125 17.509375Q384.65 18.259375 384.65 19.18125Q384.65 20.196875 384.10312 21.040625Q383.57187 21.86875 382.65 22.290625Q383.94687 22.665625 384.65 23.5875Q385.35312 24.509375 385.35312 25.74375Q385.35312 26.728125 384.9 27.65Q384.44687 28.571875 383.66562 29.134375Q382.88437 29.68125 381.72812 29.80625Q381.00937 29.884375 378.24374 29.9L373.36874 29.9L373.36874 15.5875ZM376.25937 17.9625L376.25937 21.275L378.15 21.275Q379.8375 21.275 380.24374 21.228125Q380.99374 21.134375 381.41562 20.7125Q381.8375 20.290625 381.8375 19.603125Q381.8375 18.93125 381.4625 18.525Q381.10312 18.103125 380.38437 18.009375Q379.9625 17.9625 377.91562 17.9625L376.25937 17.9625ZM376.25937 23.665625L376.25937 27.49375L378.93124 27.49375Q380.49374 27.49375 380.91562 27.4Q381.55624 27.275 381.9625 26.821875Q382.36874 26.36875 382.36874 25.61875Q382.36874 24.9625 382.05624 24.525Q381.74374 24.071875 381.15 23.86875Q380.55624 23.665625 378.5875 23.665625L376.25937 23.665625ZM387.025 26.0875L387.025 23.3375L392.41562 23.3375L392.41562 26.0875L387.025 26.0875ZM393.35312 29.9L393.35312 15.5875L397.99374 15.5875Q400.63437 15.5875 401.43124 15.790625Q402.66562 16.11875 403.49374 17.196875Q404.32187 18.275 404.32187 19.99375Q404.32187 21.30625 403.8375 22.2125Q403.36874 23.103125 402.61874 23.61875Q401.88437 24.134375 401.13437 24.290625Q400.0875 24.49375 398.13437 24.49375L396.24374 24.49375L396.24374 29.9L393.35312 29.9ZM396.24374 18.009375L396.24374 22.071875L397.82187 22.071875Q399.54062 22.071875 400.11874 21.853125Q400.69687 21.61875 401.00937 21.15Q401.3375 20.665625 401.3375 20.025Q401.3375 19.24375 400.88437 18.74375Q400.43124 18.228125 399.72812 18.103125Q399.2125 18.009375 397.65 18.009375L396.24374 18.009375ZM415.50937 24.634375L418.32187 25.525Q417.68124 27.86875 416.18124 29.009375Q414.68124 30.15 412.36874 30.15Q409.525 30.15 407.68124 28.196875Q405.85312 26.24375 405.85312 22.86875Q405.85312 19.290625 407.69687 17.321875Q409.54062 15.3375 412.54062 15.3375Q415.18124 15.3375 416.82187 16.884375Q417.79062 17.80625 418.275 19.525L415.41562 20.2125Q415.16562 19.103125 414.35312 18.4625Q413.55624 17.80625 412.4 17.80625Q410.80624 17.80625 409.80624 18.946875Q408.82187 20.0875 408.82187 22.65Q408.82187 25.36875 409.79062 26.525Q410.775 27.665625 412.3375 27.665625Q413.49374 27.665625 414.32187 26.946875Q415.15 26.2125 415.50937 24.634375ZM420.275 29.9L420.275 15.5875L423.16562 15.5875L423.16562 29.9L420.275 29.9ZM431.3375 26.603125L434.07187 27.05625Q433.55624 28.55625 432.41562 29.353125Q431.275 30.134375 429.57187 30.134375Q426.85312 30.134375 425.55624 28.36875Q424.54062 26.946875 424.54062 24.790625Q424.54062 22.2125 425.88437 20.759375Q427.22812 19.290625 429.29062 19.290625Q431.60312 19.290625 432.93124 20.821875Q434.275 22.353125 434.22812 25.509375L427.35312 25.509375Q427.38437 26.728125 428.00937 27.415625Q428.65 28.0875 429.5875 28.0875Q430.24374 28.0875 430.68124 27.74375Q431.11874 27.384375 431.3375 26.603125ZM431.49374 23.821875Q431.4625 22.634375 430.86874 22.025Q430.29062 21.4 429.4625 21.4Q428.55624 21.4 427.97812 22.040625Q427.38437 22.696875 427.4 23.821875L431.49374 23.821875ZM436.025 26.0875L436.025 23.3375L441.41562 23.3375L441.41562 26.0875L436.025 26.0875ZM442.36874 29.9L442.36874 15.5875L445.25937 15.5875L445.25937 21.2125L450.91562 21.2125L450.91562 15.5875L453.80624 15.5875L453.80624 29.9L450.91562 29.9L450.91562 23.634375L445.25937 23.634375L445.25937 29.9L442.36874 29.9ZM458.38437 22.696875L455.9 22.24375Q456.32187 20.74375 457.3375 20.025Q458.36874 19.290625 460.38437 19.290625Q462.22812 19.290625 463.11874 19.728125Q464.025 20.165625 464.38437 20.8375Q464.75937 21.49375 464.75937 23.290625L464.72812 26.49375Q464.72812 27.853125 464.85312 28.509375Q464.99374 29.15 465.35312 29.9L462.63437 29.9Q462.525 29.61875 462.36874 29.0875Q462.30624 28.8375 462.275 28.759375Q461.57187 29.446875 460.75937 29.790625Q459.9625 30.134375 459.05624 30.134375Q457.4625 30.134375 456.54062 29.275Q455.61874 28.4 455.61874 27.071875Q455.61874 26.18125 456.025 25.49375Q456.44687 24.80625 457.19687 24.446875Q457.9625 24.071875 459.4 23.80625Q461.32187 23.446875 462.05624 23.134375L462.05624 22.853125Q462.05624 22.071875 461.66562 21.74375Q461.275 21.4 460.19687 21.4Q459.4625 21.4 459.04062 21.68125Q458.63437 21.9625 458.38437 22.696875ZM462.05624 24.915625Q461.525 25.0875 460.38437 25.3375Q459.24374 25.5875 458.9 25.821875Q458.35312 26.196875 458.35312 26.790625Q458.35312 27.353125 458.775 27.775Q459.2125 28.196875 459.88437 28.196875Q460.61874 28.196875 461.29062 27.7125Q461.79062 27.3375 461.94687 26.80625Q462.05624 26.446875 462.05624 25.4625L462.05624 24.915625ZM467.3375 29.9L467.3375 15.5875L470.0875 15.5875L470.0875 29.9L467.3375 29.9ZM471.13437 19.525L472.66562 19.525L472.66562 18.74375Q472.66562 17.43125 472.93124 16.790625Q473.2125 16.15 473.9625 15.74375Q474.7125 15.3375 475.85312 15.3375Q477.025 15.3375 478.15 15.696875L477.775 17.603125Q477.11874 17.446875 476.50937 17.446875Q475.91562 17.446875 475.65 17.728125Q475.4 18.009375 475.4 18.790625L475.4 19.525L477.44687 19.525L477.44687 21.68125L475.4 21.68125L475.4 29.9L472.66562 29.9L472.66562 21.68125L471.13437 21.68125L471.13437 19.525ZM479.025 26.0875L479.025 23.3375L484.41562 23.3375L484.41562 26.0875L479.025 26.0875ZM485.35312 29.9L485.35312 15.5875L489.99374 15.5875Q492.63437 15.5875 493.43124 15.790625Q494.66562 16.11875 495.49374 17.196875Q496.32187 18.275 496.32187 19.99375Q496.32187 21.30625 495.8375 22.2125Q495.36874 23.103125 494.61874 23.61875Q493.88437 24.134375 493.13437 24.290625Q492.0875 24.49375 490.13437 24.49375L488.24374 24.49375L488.24374 29.9L485.35312 29.9ZM488.24374 18.009375L488.24374 22.071875L489.82187 22.071875Q491.54062 22.071875 492.11874 21.853125Q492.69687 21.61875 493.00937 21.15Q493.3375 20.665625 493.3375 20.025Q493.3375 19.24375 492.88437 18.74375Q492.43124 18.228125 491.72812 18.103125Q491.2125 18.009375 489.65 18.009375L488.24374 18.009375ZM497.04062 19.525L499.9625 19.525L502.43124 26.884375L504.85312 19.525L507.69687 19.525L504.04062 29.509375L503.38437 31.321875Q503.025 32.228127 502.69687 32.696877Q502.36874 33.18125 501.94687 33.478127Q501.525 33.775 500.9 33.93125Q500.275 34.103127 499.49374 34.103127Q498.7125 34.103127 497.94687 33.946877L497.69687 31.790625Q498.35312 31.915625 498.86874 31.915625Q499.82187 31.915625 500.275 31.353125Q500.74374 30.80625 500.97812 29.93125L497.04062 19.525ZM512.5719 29.9L512.5719 18.009375L508.3375 18.009375L508.3375 15.5875L519.7125 15.5875L519.7125 18.009375L515.4625 18.009375L515.4625 29.9L512.5719 29.9ZM521.6969 24.571875Q521.6969 23.196875 522.3688 21.915625Q523.0563 20.634375 524.29065 19.9625Q525.525 19.290625 527.04065 19.290625Q529.4 19.290625 530.9 20.821875Q532.4 22.353125 532.4 24.68125Q532.4 27.040625 530.8844 28.5875Q529.3688 30.134375 527.0563 30.134375Q525.6344 30.134375 524.3375 29.49375Q523.0563 28.8375 522.3688 27.603125Q521.6969 26.353125 521.6969 24.571875ZM524.5094 24.7125Q524.5094 26.259375 525.2438 27.0875Q525.97815 27.9 527.0563 27.9Q528.1344 27.9 528.85315 27.0875Q529.5875 26.259375 529.5875 24.696875Q529.5875 23.165625 528.85315 22.353125Q528.1344 21.525 527.0563 21.525Q525.97815 21.525 525.2438 22.353125Q524.5094 23.165625 524.5094 24.7125ZM536.9625 29.9L534.2125 29.9L534.2125 19.525L536.775 19.525L536.775 21.009375Q537.41565 19.9625 537.9313 19.634375Q538.4625 19.290625 539.1344 19.290625Q540.0719 19.290625 540.9313 19.80625L540.0875 22.196875Q539.4 21.759375 538.8063 21.759375Q538.22815 21.759375 537.8219 22.071875Q537.41565 22.384375 537.1813 23.228125Q536.9625 24.05625 536.9625 26.696875L536.9625 29.9ZM551.3844 22.5875L548.6813 23.0875Q548.54065 22.275 548.0563 21.86875Q547.5719 21.446875 546.8063 21.446875Q545.775 21.446875 545.16565 22.165625Q544.5563 22.86875 544.5563 24.525Q544.5563 26.36875 545.16565 27.134375Q545.79065 27.9 546.8375 27.9Q547.6188 27.9 548.1188 27.4625Q548.6188 27.009375 548.8219 25.93125L551.5094 26.384375Q551.10315 28.24375 549.9 29.196875Q548.7125 30.134375 546.7125 30.134375Q544.4313 30.134375 543.0719 28.696875Q541.72815 27.259375 541.72815 24.728125Q541.72815 22.15 543.0875 20.728125Q544.4469 19.290625 546.7594 19.290625Q548.65 19.290625 549.7594 20.11875Q550.8844 20.93125 551.3844 22.5875ZM556.0719 15.5875L556.0719 20.853125Q557.4 19.290625 559.2438 19.290625Q560.1969 19.290625 560.9469 19.65Q561.7125 19.99375 562.10315 20.540625Q562.4938 21.0875 562.6344 21.759375Q562.775 22.415625 562.775 23.821875L562.775 29.9L560.025 29.9L560.025 24.415625Q560.025 22.790625 559.8688 22.353125Q559.7125 21.915625 559.3063 21.665625Q558.91565 21.4 558.3219 21.4Q557.65 21.4 557.10315 21.728125Q556.5719 22.05625 556.3219 22.728125Q556.0719 23.4 556.0719 24.696875L556.0719 29.9L553.3219 29.9L553.3219 15.5875L556.0719 15.5875ZM564.5719 34.103127Q565.3844 32.36875 565.7125 31.43125Q566.0563 30.509375 566.3375 29.30625Q566.6188 28.0875 566.7438 27.009375Q566.8844 25.915625 566.8844 24.775Q566.8844 22.446875 566.3844 20.36875Q565.9 18.290625 564.5563 15.3375L566.41565 15.3375Q567.9 17.43125 568.7125 19.790625Q569.525 22.15 569.525 24.571875Q569.525 26.603125 568.8844 28.946875Q568.15 31.55625 566.4625 34.103127L564.5719 34.103127Z" fill-rule="nonzero"/></svg>